G04 #@! TF.GenerationSoftware,KiCad,Pcbnew,(5.1.2)-2*
G04 #@! TF.CreationDate,2019-07-15T17:49:32+09:00*
G04 #@! TF.ProjectId,meishi,6d656973-6869-42e6-9b69-6361645f7063,rev?*
G04 #@! TF.SameCoordinates,Original*
G04 #@! TF.FileFunction,Soldermask,Top*
G04 #@! TF.FilePolarity,Negative*
%FSLAX46Y46*%
G04 Gerber Fmt 4.6, Leading zero omitted, Abs format (unit mm)*
G04 Created by KiCad (PCBNEW (5.1.2)-2) date 2019-07-15 17:49:32*
%MOMM*%
%LPD*%
G04 APERTURE LIST*
%ADD10C,0.100000*%
G04 APERTURE END LIST*
D10*
G36*
X157551000Y-134606000D02*
G01*
X155449000Y-134606000D01*
X155449000Y-131504000D01*
X157551000Y-131504000D01*
X157551000Y-134606000D01*
X157551000Y-134606000D01*
G37*
G36*
X151076000Y-134606000D02*
G01*
X148974000Y-134606000D01*
X148974000Y-131504000D01*
X151076000Y-131504000D01*
X151076000Y-134606000D01*
X151076000Y-134606000D01*
G37*
G36*
X119098254Y-127027818D02*
G01*
X119471511Y-127182426D01*
X119471513Y-127182427D01*
X119807436Y-127406884D01*
X120093116Y-127692564D01*
X120317574Y-128028489D01*
X120472182Y-128401746D01*
X120551000Y-128797993D01*
X120551000Y-129202007D01*
X120472182Y-129598254D01*
X120321293Y-129962532D01*
X120317573Y-129971513D01*
X120093116Y-130307436D01*
X119807436Y-130593116D01*
X119471513Y-130817573D01*
X119471512Y-130817574D01*
X119471511Y-130817574D01*
X119098254Y-130972182D01*
X118702007Y-131051000D01*
X118297993Y-131051000D01*
X117901746Y-130972182D01*
X117528489Y-130817574D01*
X117528488Y-130817574D01*
X117528487Y-130817573D01*
X117192564Y-130593116D01*
X116906884Y-130307436D01*
X116682427Y-129971513D01*
X116678707Y-129962532D01*
X116527818Y-129598254D01*
X116449000Y-129202007D01*
X116449000Y-128797993D01*
X116527818Y-128401746D01*
X116682426Y-128028489D01*
X116906884Y-127692564D01*
X117192564Y-127406884D01*
X117528487Y-127182427D01*
X117528489Y-127182426D01*
X117901746Y-127027818D01*
X118297993Y-126949000D01*
X118702007Y-126949000D01*
X119098254Y-127027818D01*
X119098254Y-127027818D01*
G37*
G36*
X138098254Y-127027818D02*
G01*
X138471511Y-127182426D01*
X138471513Y-127182427D01*
X138807436Y-127406884D01*
X139093116Y-127692564D01*
X139317574Y-128028489D01*
X139472182Y-128401746D01*
X139551000Y-128797993D01*
X139551000Y-129202007D01*
X139472182Y-129598254D01*
X139321293Y-129962532D01*
X139317573Y-129971513D01*
X139093116Y-130307436D01*
X138807436Y-130593116D01*
X138471513Y-130817573D01*
X138471512Y-130817574D01*
X138471511Y-130817574D01*
X138098254Y-130972182D01*
X137702007Y-131051000D01*
X137297993Y-131051000D01*
X136901746Y-130972182D01*
X136528489Y-130817574D01*
X136528488Y-130817574D01*
X136528487Y-130817573D01*
X136192564Y-130593116D01*
X135906884Y-130307436D01*
X135682427Y-129971513D01*
X135678707Y-129962532D01*
X135527818Y-129598254D01*
X135449000Y-129202007D01*
X135449000Y-128797993D01*
X135527818Y-128401746D01*
X135682426Y-128028489D01*
X135906884Y-127692564D01*
X136192564Y-127406884D01*
X136528487Y-127182427D01*
X136528489Y-127182426D01*
X136901746Y-127027818D01*
X137297993Y-126949000D01*
X137702007Y-126949000D01*
X138098254Y-127027818D01*
X138098254Y-127027818D01*
G37*
G36*
X157551000Y-130106000D02*
G01*
X155449000Y-130106000D01*
X155449000Y-127004000D01*
X157551000Y-127004000D01*
X157551000Y-130106000D01*
X157551000Y-130106000D01*
G37*
G36*
X151076000Y-130106000D02*
G01*
X148974000Y-130106000D01*
X148974000Y-127004000D01*
X151076000Y-127004000D01*
X151076000Y-130106000D01*
X151076000Y-130106000D01*
G37*
G36*
X124195285Y-128018234D02*
G01*
X124291981Y-128037468D01*
X124474151Y-128112926D01*
X124638100Y-128222473D01*
X124777527Y-128361900D01*
X124887074Y-128525849D01*
X124962532Y-128708019D01*
X125001000Y-128901410D01*
X125001000Y-129098590D01*
X124962532Y-129291981D01*
X124887074Y-129474151D01*
X124777527Y-129638100D01*
X124638100Y-129777527D01*
X124474151Y-129887074D01*
X124291981Y-129962532D01*
X124098591Y-130001000D01*
X123901409Y-130001000D01*
X123708019Y-129962532D01*
X123525849Y-129887074D01*
X123361900Y-129777527D01*
X123222473Y-129638100D01*
X123112926Y-129474151D01*
X123037468Y-129291981D01*
X122999000Y-129098590D01*
X122999000Y-128901410D01*
X123037468Y-128708019D01*
X123112926Y-128525849D01*
X123222473Y-128361900D01*
X123361900Y-128222473D01*
X123525849Y-128112926D01*
X123708019Y-128037468D01*
X123804715Y-128018234D01*
X123901409Y-127999000D01*
X124098591Y-127999000D01*
X124195285Y-128018234D01*
X124195285Y-128018234D01*
G37*
G36*
X113195285Y-128018234D02*
G01*
X113291981Y-128037468D01*
X113474151Y-128112926D01*
X113638100Y-128222473D01*
X113777527Y-128361900D01*
X113887074Y-128525849D01*
X113962532Y-128708019D01*
X114001000Y-128901410D01*
X114001000Y-129098590D01*
X113962532Y-129291981D01*
X113887074Y-129474151D01*
X113777527Y-129638100D01*
X113638100Y-129777527D01*
X113474151Y-129887074D01*
X113291981Y-129962532D01*
X113098591Y-130001000D01*
X112901409Y-130001000D01*
X112708019Y-129962532D01*
X112525849Y-129887074D01*
X112361900Y-129777527D01*
X112222473Y-129638100D01*
X112112926Y-129474151D01*
X112037468Y-129291981D01*
X111999000Y-129098590D01*
X111999000Y-128901410D01*
X112037468Y-128708019D01*
X112112926Y-128525849D01*
X112222473Y-128361900D01*
X112361900Y-128222473D01*
X112525849Y-128112926D01*
X112708019Y-128037468D01*
X112804715Y-128018234D01*
X112901409Y-127999000D01*
X113098591Y-127999000D01*
X113195285Y-128018234D01*
X113195285Y-128018234D01*
G37*
G36*
X143195285Y-128018234D02*
G01*
X143291981Y-128037468D01*
X143474151Y-128112926D01*
X143638100Y-128222473D01*
X143777527Y-128361900D01*
X143887074Y-128525849D01*
X143962532Y-128708019D01*
X144001000Y-128901410D01*
X144001000Y-129098590D01*
X143962532Y-129291981D01*
X143887074Y-129474151D01*
X143777527Y-129638100D01*
X143638100Y-129777527D01*
X143474151Y-129887074D01*
X143291981Y-129962532D01*
X143098591Y-130001000D01*
X142901409Y-130001000D01*
X142708019Y-129962532D01*
X142525849Y-129887074D01*
X142361900Y-129777527D01*
X142222473Y-129638100D01*
X142112926Y-129474151D01*
X142037468Y-129291981D01*
X141999000Y-129098590D01*
X141999000Y-128901410D01*
X142037468Y-128708019D01*
X142112926Y-128525849D01*
X142222473Y-128361900D01*
X142361900Y-128222473D01*
X142525849Y-128112926D01*
X142708019Y-128037468D01*
X142804715Y-128018234D01*
X142901409Y-127999000D01*
X143098591Y-127999000D01*
X143195285Y-128018234D01*
X143195285Y-128018234D01*
G37*
G36*
X132195285Y-128018234D02*
G01*
X132291981Y-128037468D01*
X132474151Y-128112926D01*
X132638100Y-128222473D01*
X132777527Y-128361900D01*
X132887074Y-128525849D01*
X132962532Y-128708019D01*
X133001000Y-128901410D01*
X133001000Y-129098590D01*
X132962532Y-129291981D01*
X132887074Y-129474151D01*
X132777527Y-129638100D01*
X132638100Y-129777527D01*
X132474151Y-129887074D01*
X132291981Y-129962532D01*
X132098591Y-130001000D01*
X131901409Y-130001000D01*
X131708019Y-129962532D01*
X131525849Y-129887074D01*
X131361900Y-129777527D01*
X131222473Y-129638100D01*
X131112926Y-129474151D01*
X131037468Y-129291981D01*
X130999000Y-129098590D01*
X130999000Y-128901410D01*
X131037468Y-128708019D01*
X131112926Y-128525849D01*
X131222473Y-128361900D01*
X131361900Y-128222473D01*
X131525849Y-128112926D01*
X131708019Y-128037468D01*
X131804715Y-128018234D01*
X131901409Y-127999000D01*
X132098591Y-127999000D01*
X132195285Y-128018234D01*
X132195285Y-128018234D01*
G37*
G36*
X151076000Y-125606000D02*
G01*
X148974000Y-125606000D01*
X148974000Y-122504000D01*
X151076000Y-122504000D01*
X151076000Y-125606000D01*
X151076000Y-125606000D01*
G37*
G36*
X157551000Y-125606000D02*
G01*
X155449000Y-125606000D01*
X155449000Y-122504000D01*
X157551000Y-122504000D01*
X157551000Y-125606000D01*
X157551000Y-125606000D01*
G37*
G36*
X126409473Y-110208413D02*
G01*
X126505040Y-110217825D01*
X126750280Y-110292218D01*
X126976294Y-110413025D01*
X127027899Y-110455376D01*
X127174397Y-110575603D01*
X127294624Y-110722101D01*
X127336975Y-110773706D01*
X127457782Y-110999720D01*
X127532175Y-111244960D01*
X127557294Y-111500000D01*
X127532175Y-111755040D01*
X127457782Y-112000280D01*
X127336975Y-112226294D01*
X127294624Y-112277899D01*
X127174397Y-112424397D01*
X127027899Y-112544624D01*
X126976294Y-112586975D01*
X126750280Y-112707782D01*
X126505040Y-112782175D01*
X126409472Y-112791588D01*
X126313906Y-112801000D01*
X124686094Y-112801000D01*
X124590528Y-112791588D01*
X124494960Y-112782175D01*
X124249720Y-112707782D01*
X124023706Y-112586975D01*
X123972101Y-112544624D01*
X123825603Y-112424397D01*
X123705376Y-112277899D01*
X123663025Y-112226294D01*
X123542218Y-112000280D01*
X123467825Y-111755040D01*
X123442706Y-111500000D01*
X123467825Y-111244960D01*
X123542218Y-110999720D01*
X123663025Y-110773706D01*
X123705376Y-110722101D01*
X123825603Y-110575603D01*
X123972101Y-110455376D01*
X124023706Y-110413025D01*
X124249720Y-110292218D01*
X124494960Y-110217825D01*
X124590527Y-110208413D01*
X124686094Y-110199000D01*
X126313906Y-110199000D01*
X126409473Y-110208413D01*
X126409473Y-110208413D01*
G37*
G36*
X150628328Y-103196598D02*
G01*
X150640198Y-103197767D01*
X150651614Y-103201230D01*
X150737142Y-103218242D01*
X150885101Y-103279529D01*
X151018255Y-103368499D01*
X151131501Y-103481745D01*
X151220471Y-103614899D01*
X151281758Y-103762858D01*
X151313000Y-103919925D01*
X151313000Y-104080075D01*
X151281758Y-104237142D01*
X151220471Y-104385101D01*
X151131501Y-104518255D01*
X151018255Y-104631501D01*
X150885101Y-104720471D01*
X150737142Y-104781758D01*
X150651614Y-104798770D01*
X150640199Y-104802233D01*
X150628328Y-104803402D01*
X150580075Y-104813000D01*
X150419925Y-104813000D01*
X150371672Y-104803402D01*
X150347286Y-104801000D01*
X147449000Y-104801000D01*
X147449000Y-103199000D01*
X150347286Y-103199000D01*
X150371672Y-103196598D01*
X150419925Y-103187000D01*
X150580075Y-103187000D01*
X150628328Y-103196598D01*
X150628328Y-103196598D01*
G37*
G36*
X150628328Y-101196598D02*
G01*
X150640198Y-101197767D01*
X150651614Y-101201230D01*
X150737142Y-101218242D01*
X150885101Y-101279529D01*
X151018255Y-101368499D01*
X151131501Y-101481745D01*
X151220471Y-101614899D01*
X151281758Y-101762858D01*
X151313000Y-101919925D01*
X151313000Y-102080075D01*
X151281758Y-102237142D01*
X151220471Y-102385101D01*
X151131501Y-102518255D01*
X151018255Y-102631501D01*
X150885101Y-102720471D01*
X150737142Y-102781758D01*
X150651614Y-102798770D01*
X150640199Y-102802233D01*
X150628328Y-102803402D01*
X150580075Y-102813000D01*
X150419925Y-102813000D01*
X150371672Y-102803402D01*
X150347286Y-102801000D01*
X147449000Y-102801000D01*
X147449000Y-101199000D01*
X150347286Y-101199000D01*
X150371672Y-101196598D01*
X150419925Y-101187000D01*
X150580075Y-101187000D01*
X150628328Y-101196598D01*
X150628328Y-101196598D01*
G37*
G36*
X150628328Y-99196598D02*
G01*
X150640198Y-99197767D01*
X150651614Y-99201230D01*
X150737142Y-99218242D01*
X150885101Y-99279529D01*
X151018255Y-99368499D01*
X151131501Y-99481745D01*
X151220471Y-99614899D01*
X151281758Y-99762858D01*
X151313000Y-99919925D01*
X151313000Y-100080075D01*
X151281758Y-100237142D01*
X151220471Y-100385101D01*
X151131501Y-100518255D01*
X151018255Y-100631501D01*
X150885101Y-100720471D01*
X150737142Y-100781758D01*
X150651614Y-100798770D01*
X150640199Y-100802233D01*
X150628328Y-100803402D01*
X150580075Y-100813000D01*
X150419925Y-100813000D01*
X150371672Y-100803402D01*
X150347286Y-100801000D01*
X147449000Y-100801000D01*
X147449000Y-99199000D01*
X150347286Y-99199000D01*
X150371672Y-99196598D01*
X150419925Y-99187000D01*
X150580075Y-99187000D01*
X150628328Y-99196598D01*
X150628328Y-99196598D01*
G37*
G36*
X150628328Y-97196598D02*
G01*
X150640198Y-97197767D01*
X150651614Y-97201230D01*
X150737142Y-97218242D01*
X150885101Y-97279529D01*
X151018255Y-97368499D01*
X151131501Y-97481745D01*
X151220471Y-97614899D01*
X151281758Y-97762858D01*
X151313000Y-97919925D01*
X151313000Y-98080075D01*
X151281758Y-98237142D01*
X151220471Y-98385101D01*
X151131501Y-98518255D01*
X151018255Y-98631501D01*
X150885101Y-98720471D01*
X150737142Y-98781758D01*
X150651614Y-98798770D01*
X150640199Y-98802233D01*
X150628328Y-98803402D01*
X150580075Y-98813000D01*
X150419925Y-98813000D01*
X150371672Y-98803402D01*
X150347286Y-98801000D01*
X147449000Y-98801000D01*
X147449000Y-97199000D01*
X150347286Y-97199000D01*
X150371672Y-97196598D01*
X150419925Y-97187000D01*
X150580075Y-97187000D01*
X150628328Y-97196598D01*
X150628328Y-97196598D01*
G37*
G36*
X126909472Y-96208412D02*
G01*
X127005040Y-96217825D01*
X127250280Y-96292218D01*
X127476294Y-96413025D01*
X127527899Y-96455376D01*
X127674397Y-96575603D01*
X127794624Y-96722101D01*
X127836975Y-96773706D01*
X127957782Y-96999720D01*
X128032175Y-97244960D01*
X128057294Y-97500000D01*
X128032175Y-97755040D01*
X127957782Y-98000280D01*
X127836975Y-98226294D01*
X127828072Y-98237142D01*
X127674397Y-98424397D01*
X127560027Y-98518257D01*
X127476294Y-98586975D01*
X127250280Y-98707782D01*
X127005040Y-98782175D01*
X126909472Y-98791588D01*
X126813906Y-98801000D01*
X124186094Y-98801000D01*
X124090528Y-98791588D01*
X123994960Y-98782175D01*
X123749720Y-98707782D01*
X123523706Y-98586975D01*
X123439973Y-98518257D01*
X123325603Y-98424397D01*
X123171928Y-98237142D01*
X123163025Y-98226294D01*
X123042218Y-98000280D01*
X122967825Y-97755040D01*
X122942706Y-97500000D01*
X122967825Y-97244960D01*
X123042218Y-96999720D01*
X123163025Y-96773706D01*
X123205376Y-96722101D01*
X123325603Y-96575603D01*
X123472101Y-96455376D01*
X123523706Y-96413025D01*
X123749720Y-96292218D01*
X123994960Y-96217825D01*
X124090527Y-96208413D01*
X124186094Y-96199000D01*
X126813906Y-96199000D01*
X126909472Y-96208412D01*
X126909472Y-96208412D01*
G37*
G36*
X129594425Y-92564599D02*
G01*
X129718621Y-92589302D01*
X129855022Y-92645801D01*
X129977779Y-92727825D01*
X130082175Y-92832221D01*
X130164199Y-92954978D01*
X130220698Y-93091379D01*
X130249500Y-93236181D01*
X130249500Y-93383819D01*
X130220698Y-93528621D01*
X130164199Y-93665022D01*
X130082175Y-93787779D01*
X129977779Y-93892175D01*
X129855022Y-93974199D01*
X129718621Y-94030698D01*
X129594425Y-94055401D01*
X129573820Y-94059500D01*
X129426180Y-94059500D01*
X129405575Y-94055401D01*
X129281379Y-94030698D01*
X129144978Y-93974199D01*
X129022221Y-93892175D01*
X128917825Y-93787779D01*
X128835801Y-93665022D01*
X128779302Y-93528621D01*
X128750500Y-93383819D01*
X128750500Y-93236181D01*
X128779302Y-93091379D01*
X128835801Y-92954978D01*
X128917825Y-92832221D01*
X129022221Y-92727825D01*
X129144978Y-92645801D01*
X129281379Y-92589302D01*
X129405575Y-92564599D01*
X129426180Y-92560500D01*
X129573820Y-92560500D01*
X129594425Y-92564599D01*
X129594425Y-92564599D01*
G37*
G36*
X132594425Y-92564599D02*
G01*
X132718621Y-92589302D01*
X132855022Y-92645801D01*
X132977779Y-92727825D01*
X133082175Y-92832221D01*
X133164199Y-92954978D01*
X133220698Y-93091379D01*
X133249500Y-93236181D01*
X133249500Y-93383819D01*
X133220698Y-93528621D01*
X133164199Y-93665022D01*
X133082175Y-93787779D01*
X132977779Y-93892175D01*
X132855022Y-93974199D01*
X132718621Y-94030698D01*
X132594425Y-94055401D01*
X132573820Y-94059500D01*
X132426180Y-94059500D01*
X132405575Y-94055401D01*
X132281379Y-94030698D01*
X132144978Y-93974199D01*
X132022221Y-93892175D01*
X131917825Y-93787779D01*
X131835801Y-93665022D01*
X131779302Y-93528621D01*
X131750500Y-93383819D01*
X131750500Y-93236181D01*
X131779302Y-93091379D01*
X131835801Y-92954978D01*
X131917825Y-92832221D01*
X132022221Y-92727825D01*
X132144978Y-92645801D01*
X132281379Y-92589302D01*
X132405575Y-92564599D01*
X132426180Y-92560500D01*
X132573820Y-92560500D01*
X132594425Y-92564599D01*
X132594425Y-92564599D01*
G37*
G36*
X130026000Y-91976000D02*
G01*
X128974000Y-91976000D01*
X128974000Y-90574000D01*
X130026000Y-90574000D01*
X130026000Y-91976000D01*
X130026000Y-91976000D01*
G37*
G36*
X133026000Y-91976000D02*
G01*
X131974000Y-91976000D01*
X131974000Y-90574000D01*
X133026000Y-90574000D01*
X133026000Y-91976000D01*
X133026000Y-91976000D01*
G37*
G36*
X130026000Y-88426000D02*
G01*
X128974000Y-88426000D01*
X128974000Y-87024000D01*
X130026000Y-87024000D01*
X130026000Y-88426000D01*
X130026000Y-88426000D01*
G37*
G36*
X133026000Y-88426000D02*
G01*
X131974000Y-88426000D01*
X131974000Y-87024000D01*
X133026000Y-87024000D01*
X133026000Y-88426000D01*
X133026000Y-88426000D01*
G37*
G36*
X153598254Y-82527818D02*
G01*
X153889763Y-82648565D01*
X153971513Y-82682427D01*
X154307436Y-82906884D01*
X154593116Y-83192564D01*
X154651510Y-83279956D01*
X154817574Y-83528489D01*
X154972182Y-83901746D01*
X155051000Y-84297993D01*
X155051000Y-84702007D01*
X154972182Y-85098254D01*
X154817574Y-85471511D01*
X154817573Y-85471513D01*
X154593116Y-85807436D01*
X154307436Y-86093116D01*
X153971513Y-86317573D01*
X153971512Y-86317574D01*
X153971511Y-86317574D01*
X153598254Y-86472182D01*
X153202007Y-86551000D01*
X152797993Y-86551000D01*
X152401746Y-86472182D01*
X152028489Y-86317574D01*
X152028488Y-86317574D01*
X152028487Y-86317573D01*
X151692564Y-86093116D01*
X151406884Y-85807436D01*
X151182427Y-85471513D01*
X151182426Y-85471511D01*
X151027818Y-85098254D01*
X150949000Y-84702007D01*
X150949000Y-84297993D01*
X151027818Y-83901746D01*
X151182426Y-83528489D01*
X151348491Y-83279956D01*
X151406884Y-83192564D01*
X151692564Y-82906884D01*
X152028487Y-82682427D01*
X152110237Y-82648565D01*
X152401746Y-82527818D01*
X152797993Y-82449000D01*
X153202007Y-82449000D01*
X153598254Y-82527818D01*
X153598254Y-82527818D01*
G37*
G36*
X116598254Y-82527818D02*
G01*
X116889763Y-82648565D01*
X116971513Y-82682427D01*
X117307436Y-82906884D01*
X117593116Y-83192564D01*
X117651510Y-83279956D01*
X117817574Y-83528489D01*
X117972182Y-83901746D01*
X118051000Y-84297993D01*
X118051000Y-84702007D01*
X117972182Y-85098254D01*
X117817574Y-85471511D01*
X117817573Y-85471513D01*
X117593116Y-85807436D01*
X117307436Y-86093116D01*
X116971513Y-86317573D01*
X116971512Y-86317574D01*
X116971511Y-86317574D01*
X116598254Y-86472182D01*
X116202007Y-86551000D01*
X115797993Y-86551000D01*
X115401746Y-86472182D01*
X115028489Y-86317574D01*
X115028488Y-86317574D01*
X115028487Y-86317573D01*
X114692564Y-86093116D01*
X114406884Y-85807436D01*
X114182427Y-85471513D01*
X114182426Y-85471511D01*
X114027818Y-85098254D01*
X113949000Y-84702007D01*
X113949000Y-84297993D01*
X114027818Y-83901746D01*
X114182426Y-83528489D01*
X114348491Y-83279956D01*
X114406884Y-83192564D01*
X114692564Y-82906884D01*
X115028487Y-82682427D01*
X115110237Y-82648565D01*
X115401746Y-82527818D01*
X115797993Y-82449000D01*
X116202007Y-82449000D01*
X116598254Y-82527818D01*
X116598254Y-82527818D01*
G37*
G36*
X130249500Y-86439500D02*
G01*
X128750500Y-86439500D01*
X128750500Y-84940500D01*
X130249500Y-84940500D01*
X130249500Y-86439500D01*
X130249500Y-86439500D01*
G37*
G36*
X133249500Y-86439500D02*
G01*
X131750500Y-86439500D01*
X131750500Y-84940500D01*
X133249500Y-84940500D01*
X133249500Y-86439500D01*
X133249500Y-86439500D01*
G37*
G36*
X121193512Y-83603927D02*
G01*
X121342812Y-83633624D01*
X121506784Y-83701544D01*
X121654354Y-83800147D01*
X121779853Y-83925646D01*
X121878456Y-84073216D01*
X121946376Y-84237188D01*
X121981000Y-84411259D01*
X121981000Y-84588741D01*
X121946376Y-84762812D01*
X121878456Y-84926784D01*
X121779853Y-85074354D01*
X121654354Y-85199853D01*
X121506784Y-85298456D01*
X121342812Y-85366376D01*
X121193512Y-85396073D01*
X121168742Y-85401000D01*
X120991258Y-85401000D01*
X120966488Y-85396073D01*
X120817188Y-85366376D01*
X120653216Y-85298456D01*
X120505646Y-85199853D01*
X120380147Y-85074354D01*
X120281544Y-84926784D01*
X120213624Y-84762812D01*
X120179000Y-84588741D01*
X120179000Y-84411259D01*
X120213624Y-84237188D01*
X120281544Y-84073216D01*
X120380147Y-83925646D01*
X120505646Y-83800147D01*
X120653216Y-83701544D01*
X120817188Y-83633624D01*
X120966488Y-83603927D01*
X120991258Y-83599000D01*
X121168742Y-83599000D01*
X121193512Y-83603927D01*
X121193512Y-83603927D01*
G37*
G36*
X148033512Y-83603927D02*
G01*
X148182812Y-83633624D01*
X148346784Y-83701544D01*
X148494354Y-83800147D01*
X148619853Y-83925646D01*
X148718456Y-84073216D01*
X148786376Y-84237188D01*
X148821000Y-84411259D01*
X148821000Y-84588741D01*
X148786376Y-84762812D01*
X148718456Y-84926784D01*
X148619853Y-85074354D01*
X148494354Y-85199853D01*
X148346784Y-85298456D01*
X148182812Y-85366376D01*
X148033512Y-85396073D01*
X148008742Y-85401000D01*
X147831258Y-85401000D01*
X147806488Y-85396073D01*
X147657188Y-85366376D01*
X147493216Y-85298456D01*
X147345646Y-85199853D01*
X147220147Y-85074354D01*
X147121544Y-84926784D01*
X147053624Y-84762812D01*
X147019000Y-84588741D01*
X147019000Y-84411259D01*
X147053624Y-84237188D01*
X147121544Y-84073216D01*
X147220147Y-83925646D01*
X147345646Y-83800147D01*
X147493216Y-83701544D01*
X147657188Y-83633624D01*
X147806488Y-83603927D01*
X147831258Y-83599000D01*
X148008742Y-83599000D01*
X148033512Y-83603927D01*
X148033512Y-83603927D01*
G37*
G36*
X158193512Y-83603927D02*
G01*
X158342812Y-83633624D01*
X158506784Y-83701544D01*
X158654354Y-83800147D01*
X158779853Y-83925646D01*
X158878456Y-84073216D01*
X158946376Y-84237188D01*
X158981000Y-84411259D01*
X158981000Y-84588741D01*
X158946376Y-84762812D01*
X158878456Y-84926784D01*
X158779853Y-85074354D01*
X158654354Y-85199853D01*
X158506784Y-85298456D01*
X158342812Y-85366376D01*
X158193512Y-85396073D01*
X158168742Y-85401000D01*
X157991258Y-85401000D01*
X157966488Y-85396073D01*
X157817188Y-85366376D01*
X157653216Y-85298456D01*
X157505646Y-85199853D01*
X157380147Y-85074354D01*
X157281544Y-84926784D01*
X157213624Y-84762812D01*
X157179000Y-84588741D01*
X157179000Y-84411259D01*
X157213624Y-84237188D01*
X157281544Y-84073216D01*
X157380147Y-83925646D01*
X157505646Y-83800147D01*
X157653216Y-83701544D01*
X157817188Y-83633624D01*
X157966488Y-83603927D01*
X157991258Y-83599000D01*
X158168742Y-83599000D01*
X158193512Y-83603927D01*
X158193512Y-83603927D01*
G37*
G36*
X111033512Y-83603927D02*
G01*
X111182812Y-83633624D01*
X111346784Y-83701544D01*
X111494354Y-83800147D01*
X111619853Y-83925646D01*
X111718456Y-84073216D01*
X111786376Y-84237188D01*
X111821000Y-84411259D01*
X111821000Y-84588741D01*
X111786376Y-84762812D01*
X111718456Y-84926784D01*
X111619853Y-85074354D01*
X111494354Y-85199853D01*
X111346784Y-85298456D01*
X111182812Y-85366376D01*
X111033512Y-85396073D01*
X111008742Y-85401000D01*
X110831258Y-85401000D01*
X110806488Y-85396073D01*
X110657188Y-85366376D01*
X110493216Y-85298456D01*
X110345646Y-85199853D01*
X110220147Y-85074354D01*
X110121544Y-84926784D01*
X110053624Y-84762812D01*
X110019000Y-84588741D01*
X110019000Y-84411259D01*
X110053624Y-84237188D01*
X110121544Y-84073216D01*
X110220147Y-83925646D01*
X110345646Y-83800147D01*
X110493216Y-83701544D01*
X110657188Y-83633624D01*
X110806488Y-83603927D01*
X110831258Y-83599000D01*
X111008742Y-83599000D01*
X111033512Y-83603927D01*
X111033512Y-83603927D01*
G37*
G36*
X113771053Y-80916188D02*
G01*
X113859754Y-80934839D01*
X113943116Y-80970440D01*
X114017935Y-81021622D01*
X114081324Y-81086409D01*
X114130859Y-81162323D01*
X114164632Y-81246442D01*
X114182484Y-81341603D01*
X114283907Y-82500881D01*
X114282851Y-82597702D01*
X114264200Y-82686403D01*
X114228598Y-82769768D01*
X114177422Y-82844579D01*
X114112629Y-82907973D01*
X114036713Y-82957510D01*
X113952598Y-82991281D01*
X113857437Y-83009133D01*
X110705769Y-83284868D01*
X110608947Y-83283812D01*
X110520246Y-83265161D01*
X110436884Y-83229560D01*
X110362065Y-83178378D01*
X110298676Y-83113591D01*
X110249141Y-83037677D01*
X110215368Y-82953558D01*
X110197516Y-82858397D01*
X110096093Y-81699119D01*
X110097149Y-81602298D01*
X110115800Y-81513597D01*
X110151402Y-81430232D01*
X110202578Y-81355421D01*
X110267371Y-81292027D01*
X110343287Y-81242490D01*
X110427402Y-81208719D01*
X110522563Y-81190867D01*
X113674231Y-80915132D01*
X113771053Y-80916188D01*
X113771053Y-80916188D01*
G37*
G36*
X150771053Y-80916188D02*
G01*
X150859754Y-80934839D01*
X150943116Y-80970440D01*
X151017935Y-81021622D01*
X151081324Y-81086409D01*
X151130859Y-81162323D01*
X151164632Y-81246442D01*
X151182484Y-81341603D01*
X151283907Y-82500881D01*
X151282851Y-82597702D01*
X151264200Y-82686403D01*
X151228598Y-82769768D01*
X151177422Y-82844579D01*
X151112629Y-82907973D01*
X151036713Y-82957510D01*
X150952598Y-82991281D01*
X150857437Y-83009133D01*
X147705769Y-83284868D01*
X147608947Y-83283812D01*
X147520246Y-83265161D01*
X147436884Y-83229560D01*
X147362065Y-83178378D01*
X147298676Y-83113591D01*
X147249141Y-83037677D01*
X147215368Y-82953558D01*
X147197516Y-82858397D01*
X147096093Y-81699119D01*
X147097149Y-81602298D01*
X147115800Y-81513597D01*
X147151402Y-81430232D01*
X147202578Y-81355421D01*
X147267371Y-81292027D01*
X147343287Y-81242490D01*
X147427402Y-81208719D01*
X147522563Y-81190867D01*
X150674231Y-80915132D01*
X150771053Y-80916188D01*
X150771053Y-80916188D01*
G37*
G36*
X142161883Y-80578335D02*
G01*
X142330640Y-80648236D01*
X142482518Y-80749718D01*
X142611682Y-80878882D01*
X142713164Y-81030760D01*
X142783065Y-81199517D01*
X142818700Y-81378668D01*
X142818700Y-81561332D01*
X142783065Y-81740483D01*
X142713164Y-81909240D01*
X142611682Y-82061118D01*
X142482518Y-82190282D01*
X142330640Y-82291764D01*
X142161883Y-82361665D01*
X141982732Y-82397300D01*
X141800068Y-82397300D01*
X141620917Y-82361665D01*
X141452160Y-82291764D01*
X141300282Y-82190282D01*
X141171118Y-82061118D01*
X141069636Y-81909240D01*
X140999735Y-81740483D01*
X140964100Y-81561332D01*
X140964100Y-81378668D01*
X140999735Y-81199517D01*
X141069636Y-81030760D01*
X141171118Y-80878882D01*
X141300282Y-80749718D01*
X141452160Y-80648236D01*
X141620917Y-80578335D01*
X141800068Y-80542700D01*
X141982732Y-80542700D01*
X142161883Y-80578335D01*
X142161883Y-80578335D01*
G37*
G36*
X127379083Y-80578335D02*
G01*
X127547840Y-80648236D01*
X127699718Y-80749718D01*
X127828882Y-80878882D01*
X127930364Y-81030760D01*
X128000265Y-81199517D01*
X128035900Y-81378668D01*
X128035900Y-81561332D01*
X128000265Y-81740483D01*
X127930364Y-81909240D01*
X127828882Y-82061118D01*
X127699718Y-82190282D01*
X127547840Y-82291764D01*
X127379083Y-82361665D01*
X127199932Y-82397300D01*
X127017268Y-82397300D01*
X126838117Y-82361665D01*
X126669360Y-82291764D01*
X126517482Y-82190282D01*
X126388318Y-82061118D01*
X126286836Y-81909240D01*
X126216935Y-81740483D01*
X126181300Y-81561332D01*
X126181300Y-81378668D01*
X126216935Y-81199517D01*
X126286836Y-81030760D01*
X126388318Y-80878882D01*
X126517482Y-80749718D01*
X126669360Y-80648236D01*
X126838117Y-80578335D01*
X127017268Y-80542700D01*
X127199932Y-80542700D01*
X127379083Y-80578335D01*
X127379083Y-80578335D01*
G37*
G36*
X120207437Y-78510867D02*
G01*
X120302597Y-78528719D01*
X120386716Y-78562492D01*
X120462630Y-78612027D01*
X120527417Y-78675416D01*
X120578599Y-78750235D01*
X120614200Y-78833597D01*
X120632851Y-78922298D01*
X120633907Y-79019119D01*
X120532484Y-80178397D01*
X120514632Y-80273559D01*
X120480861Y-80357674D01*
X120431324Y-80433590D01*
X120367930Y-80498383D01*
X120293119Y-80549559D01*
X120209754Y-80585161D01*
X120121053Y-80603812D01*
X120024231Y-80604868D01*
X116872563Y-80329133D01*
X116777403Y-80311281D01*
X116693284Y-80277508D01*
X116617370Y-80227973D01*
X116552583Y-80164584D01*
X116501401Y-80089765D01*
X116465800Y-80006403D01*
X116447149Y-79917702D01*
X116446093Y-79820881D01*
X116547516Y-78661603D01*
X116565368Y-78566441D01*
X116599139Y-78482326D01*
X116648676Y-78406410D01*
X116712070Y-78341617D01*
X116786881Y-78290441D01*
X116870246Y-78254839D01*
X116958947Y-78236188D01*
X117055769Y-78235132D01*
X120207437Y-78510867D01*
X120207437Y-78510867D01*
G37*
G36*
X157207437Y-78510867D02*
G01*
X157302597Y-78528719D01*
X157386716Y-78562492D01*
X157462630Y-78612027D01*
X157527417Y-78675416D01*
X157578599Y-78750235D01*
X157614200Y-78833597D01*
X157632851Y-78922298D01*
X157633907Y-79019119D01*
X157532484Y-80178397D01*
X157514632Y-80273559D01*
X157480861Y-80357674D01*
X157431324Y-80433590D01*
X157367930Y-80498383D01*
X157293119Y-80549559D01*
X157209754Y-80585161D01*
X157121053Y-80603812D01*
X157024231Y-80604868D01*
X153872563Y-80329133D01*
X153777403Y-80311281D01*
X153693284Y-80277508D01*
X153617370Y-80227973D01*
X153552583Y-80164584D01*
X153501401Y-80089765D01*
X153465800Y-80006403D01*
X153447149Y-79917702D01*
X153446093Y-79820881D01*
X153547516Y-78661603D01*
X153565368Y-78566441D01*
X153599139Y-78482326D01*
X153648676Y-78406410D01*
X153712070Y-78341617D01*
X153786881Y-78290441D01*
X153870246Y-78254839D01*
X153958947Y-78236188D01*
X154055769Y-78235132D01*
X157207437Y-78510867D01*
X157207437Y-78510867D01*
G37*
G36*
X71463855Y-79252140D02*
G01*
X71527618Y-79258420D01*
X71618404Y-79285960D01*
X71650336Y-79295646D01*
X71763425Y-79356094D01*
X71862554Y-79437446D01*
X71943906Y-79536575D01*
X72004354Y-79649664D01*
X72004355Y-79649668D01*
X72041580Y-79772382D01*
X72054149Y-79900000D01*
X72041580Y-80027618D01*
X72022728Y-80089765D01*
X72004354Y-80150336D01*
X71943906Y-80263425D01*
X71862554Y-80362554D01*
X71763425Y-80443906D01*
X71650336Y-80504354D01*
X71618404Y-80514040D01*
X71527618Y-80541580D01*
X71463855Y-80547860D01*
X71431974Y-80551000D01*
X69568026Y-80551000D01*
X69536145Y-80547860D01*
X69472382Y-80541580D01*
X69381596Y-80514040D01*
X69349664Y-80504354D01*
X69236575Y-80443906D01*
X69137446Y-80362554D01*
X69056094Y-80263425D01*
X68995646Y-80150336D01*
X68977272Y-80089765D01*
X68958420Y-80027618D01*
X68945851Y-79900000D01*
X68958420Y-79772382D01*
X68995645Y-79649668D01*
X68995646Y-79649664D01*
X69056094Y-79536575D01*
X69137446Y-79437446D01*
X69236575Y-79356094D01*
X69349664Y-79295646D01*
X69381596Y-79285960D01*
X69472382Y-79258420D01*
X69536145Y-79252140D01*
X69568026Y-79249000D01*
X71431974Y-79249000D01*
X71463855Y-79252140D01*
X71463855Y-79252140D01*
G37*
G36*
X126921883Y-78038335D02*
G01*
X127090640Y-78108236D01*
X127242518Y-78209718D01*
X127371682Y-78338882D01*
X127473164Y-78490760D01*
X127543065Y-78659517D01*
X127578700Y-78838668D01*
X127578700Y-79021332D01*
X127543065Y-79200483D01*
X127473164Y-79369240D01*
X127371682Y-79521118D01*
X127242518Y-79650282D01*
X127090640Y-79751764D01*
X126921883Y-79821665D01*
X126742732Y-79857300D01*
X126560068Y-79857300D01*
X126380917Y-79821665D01*
X126212160Y-79751764D01*
X126060282Y-79650282D01*
X125931118Y-79521118D01*
X125829636Y-79369240D01*
X125759735Y-79200483D01*
X125724100Y-79021332D01*
X125724100Y-78838668D01*
X125759735Y-78659517D01*
X125829636Y-78490760D01*
X125931118Y-78338882D01*
X126060282Y-78209718D01*
X126212160Y-78108236D01*
X126380917Y-78038335D01*
X126560068Y-78002700D01*
X126742732Y-78002700D01*
X126921883Y-78038335D01*
X126921883Y-78038335D01*
G37*
G36*
X142619083Y-78038335D02*
G01*
X142787840Y-78108236D01*
X142939718Y-78209718D01*
X143068882Y-78338882D01*
X143170364Y-78490760D01*
X143240265Y-78659517D01*
X143275900Y-78838668D01*
X143275900Y-79021332D01*
X143240265Y-79200483D01*
X143170364Y-79369240D01*
X143068882Y-79521118D01*
X142939718Y-79650282D01*
X142787840Y-79751764D01*
X142619083Y-79821665D01*
X142439932Y-79857300D01*
X142257268Y-79857300D01*
X142078117Y-79821665D01*
X141909360Y-79751764D01*
X141757482Y-79650282D01*
X141628318Y-79521118D01*
X141526836Y-79369240D01*
X141456935Y-79200483D01*
X141421300Y-79021332D01*
X141421300Y-78838668D01*
X141456935Y-78659517D01*
X141526836Y-78490760D01*
X141628318Y-78338882D01*
X141757482Y-78209718D01*
X141909360Y-78108236D01*
X142078117Y-78038335D01*
X142257268Y-78002700D01*
X142439932Y-78002700D01*
X142619083Y-78038335D01*
X142619083Y-78038335D01*
G37*
G36*
X78913855Y-76352140D02*
G01*
X78977618Y-76358420D01*
X79068404Y-76385960D01*
X79100336Y-76395646D01*
X79213425Y-76456094D01*
X79312554Y-76537446D01*
X79393906Y-76636575D01*
X79454354Y-76749664D01*
X79454355Y-76749668D01*
X79491580Y-76872382D01*
X79504149Y-77000000D01*
X79491580Y-77127618D01*
X79464040Y-77218404D01*
X79454354Y-77250336D01*
X79393906Y-77363425D01*
X79312554Y-77462554D01*
X79213425Y-77543906D01*
X79100336Y-77604354D01*
X79068404Y-77614040D01*
X78977618Y-77641580D01*
X78913855Y-77647860D01*
X78881974Y-77651000D01*
X77018026Y-77651000D01*
X76986145Y-77647860D01*
X76922382Y-77641580D01*
X76831596Y-77614040D01*
X76799664Y-77604354D01*
X76686575Y-77543906D01*
X76587446Y-77462554D01*
X76506094Y-77363425D01*
X76445646Y-77250336D01*
X76435960Y-77218404D01*
X76408420Y-77127618D01*
X76395851Y-77000000D01*
X76408420Y-76872382D01*
X76445645Y-76749668D01*
X76445646Y-76749664D01*
X76506094Y-76636575D01*
X76587446Y-76537446D01*
X76686575Y-76456094D01*
X76799664Y-76395646D01*
X76831596Y-76385960D01*
X76922382Y-76358420D01*
X76986145Y-76352140D01*
X77018026Y-76349000D01*
X78881974Y-76349000D01*
X78913855Y-76352140D01*
X78913855Y-76352140D01*
G37*
G36*
X142161883Y-75498335D02*
G01*
X142330640Y-75568236D01*
X142482518Y-75669718D01*
X142611682Y-75798882D01*
X142713164Y-75950760D01*
X142783065Y-76119517D01*
X142818700Y-76298668D01*
X142818700Y-76481332D01*
X142783065Y-76660483D01*
X142713164Y-76829240D01*
X142611682Y-76981118D01*
X142482518Y-77110282D01*
X142330640Y-77211764D01*
X142161883Y-77281665D01*
X141982732Y-77317300D01*
X141800068Y-77317300D01*
X141620917Y-77281665D01*
X141452160Y-77211764D01*
X141300282Y-77110282D01*
X141171118Y-76981118D01*
X141069636Y-76829240D01*
X140999735Y-76660483D01*
X140964100Y-76481332D01*
X140964100Y-76298668D01*
X140999735Y-76119517D01*
X141069636Y-75950760D01*
X141171118Y-75798882D01*
X141300282Y-75669718D01*
X141452160Y-75568236D01*
X141620917Y-75498335D01*
X141800068Y-75462700D01*
X141982732Y-75462700D01*
X142161883Y-75498335D01*
X142161883Y-75498335D01*
G37*
G36*
X127379083Y-75498335D02*
G01*
X127547840Y-75568236D01*
X127699718Y-75669718D01*
X127828882Y-75798882D01*
X127930364Y-75950760D01*
X128000265Y-76119517D01*
X128035900Y-76298668D01*
X128035900Y-76481332D01*
X128000265Y-76660483D01*
X127930364Y-76829240D01*
X127828882Y-76981118D01*
X127699718Y-77110282D01*
X127547840Y-77211764D01*
X127379083Y-77281665D01*
X127199932Y-77317300D01*
X127017268Y-77317300D01*
X126838117Y-77281665D01*
X126669360Y-77211764D01*
X126517482Y-77110282D01*
X126388318Y-76981118D01*
X126286836Y-76829240D01*
X126216935Y-76660483D01*
X126181300Y-76481332D01*
X126181300Y-76298668D01*
X126216935Y-76119517D01*
X126286836Y-75950760D01*
X126388318Y-75798882D01*
X126517482Y-75669718D01*
X126669360Y-75568236D01*
X126838117Y-75498335D01*
X127017268Y-75462700D01*
X127199932Y-75462700D01*
X127379083Y-75498335D01*
X127379083Y-75498335D01*
G37*
G36*
X153904425Y-75754599D02*
G01*
X154028621Y-75779302D01*
X154165022Y-75835801D01*
X154287779Y-75917825D01*
X154392175Y-76022221D01*
X154474199Y-76144978D01*
X154530698Y-76281379D01*
X154559500Y-76426181D01*
X154559500Y-76573819D01*
X154530698Y-76718621D01*
X154474199Y-76855022D01*
X154392175Y-76977779D01*
X154287779Y-77082175D01*
X154165022Y-77164199D01*
X154028621Y-77220698D01*
X153904425Y-77245401D01*
X153883820Y-77249500D01*
X153736180Y-77249500D01*
X153715575Y-77245401D01*
X153591379Y-77220698D01*
X153454978Y-77164199D01*
X153332221Y-77082175D01*
X153227825Y-76977779D01*
X153145801Y-76855022D01*
X153089302Y-76718621D01*
X153060500Y-76573819D01*
X153060500Y-76426181D01*
X153089302Y-76281379D01*
X153145801Y-76144978D01*
X153227825Y-76022221D01*
X153332221Y-75917825D01*
X153454978Y-75835801D01*
X153591379Y-75779302D01*
X153715575Y-75754599D01*
X153736180Y-75750500D01*
X153883820Y-75750500D01*
X153904425Y-75754599D01*
X153904425Y-75754599D01*
G37*
G36*
X146939500Y-77249500D02*
G01*
X145440500Y-77249500D01*
X145440500Y-75750500D01*
X146939500Y-75750500D01*
X146939500Y-77249500D01*
X146939500Y-77249500D01*
G37*
G36*
X91535993Y-73956203D02*
G01*
X91600411Y-73975744D01*
X91659781Y-74007478D01*
X91711817Y-74050183D01*
X91754522Y-74102219D01*
X91786256Y-74161589D01*
X91805797Y-74226007D01*
X91813000Y-74299140D01*
X91813000Y-76700860D01*
X91805797Y-76773993D01*
X91786256Y-76838411D01*
X91754522Y-76897781D01*
X91711817Y-76949817D01*
X91659781Y-76992522D01*
X91600411Y-77024256D01*
X91535993Y-77043797D01*
X91462860Y-77051000D01*
X90537140Y-77051000D01*
X90464007Y-77043797D01*
X90399589Y-77024256D01*
X90340219Y-76992522D01*
X90288183Y-76949817D01*
X90245478Y-76897781D01*
X90213744Y-76838411D01*
X90194203Y-76773993D01*
X90187000Y-76700860D01*
X90187000Y-74299140D01*
X90194203Y-74226007D01*
X90213744Y-74161589D01*
X90245478Y-74102219D01*
X90288183Y-74050183D01*
X90340219Y-74007478D01*
X90399589Y-73975744D01*
X90464007Y-73956203D01*
X90537140Y-73949000D01*
X91462860Y-73949000D01*
X91535993Y-73956203D01*
X91535993Y-73956203D01*
G37*
G36*
X95535993Y-73956203D02*
G01*
X95600411Y-73975744D01*
X95659781Y-74007478D01*
X95711817Y-74050183D01*
X95754522Y-74102219D01*
X95786256Y-74161589D01*
X95805797Y-74226007D01*
X95813000Y-74299140D01*
X95813000Y-76700860D01*
X95805797Y-76773993D01*
X95786256Y-76838411D01*
X95754522Y-76897781D01*
X95711817Y-76949817D01*
X95659781Y-76992522D01*
X95600411Y-77024256D01*
X95535993Y-77043797D01*
X95462860Y-77051000D01*
X94537140Y-77051000D01*
X94464007Y-77043797D01*
X94399589Y-77024256D01*
X94340219Y-76992522D01*
X94288183Y-76949817D01*
X94245478Y-76897781D01*
X94213744Y-76838411D01*
X94194203Y-76773993D01*
X94187000Y-76700860D01*
X94187000Y-74299140D01*
X94194203Y-74226007D01*
X94213744Y-74161589D01*
X94245478Y-74102219D01*
X94288183Y-74050183D01*
X94340219Y-74007478D01*
X94399589Y-73975744D01*
X94464007Y-73956203D01*
X94537140Y-73949000D01*
X95462860Y-73949000D01*
X95535993Y-73956203D01*
X95535993Y-73956203D01*
G37*
G36*
X89535993Y-73956203D02*
G01*
X89600411Y-73975744D01*
X89659781Y-74007478D01*
X89711817Y-74050183D01*
X89754522Y-74102219D01*
X89786256Y-74161589D01*
X89805797Y-74226007D01*
X89813000Y-74299140D01*
X89813000Y-76700860D01*
X89805797Y-76773993D01*
X89786256Y-76838411D01*
X89754522Y-76897781D01*
X89711817Y-76949817D01*
X89659781Y-76992522D01*
X89600411Y-77024256D01*
X89535993Y-77043797D01*
X89462860Y-77051000D01*
X88537140Y-77051000D01*
X88464007Y-77043797D01*
X88399589Y-77024256D01*
X88340219Y-76992522D01*
X88288183Y-76949817D01*
X88245478Y-76897781D01*
X88213744Y-76838411D01*
X88194203Y-76773993D01*
X88187000Y-76700860D01*
X88187000Y-74299140D01*
X88194203Y-74226007D01*
X88213744Y-74161589D01*
X88245478Y-74102219D01*
X88288183Y-74050183D01*
X88340219Y-74007478D01*
X88399589Y-73975744D01*
X88464007Y-73956203D01*
X88537140Y-73949000D01*
X89462860Y-73949000D01*
X89535993Y-73956203D01*
X89535993Y-73956203D01*
G37*
G36*
X93535993Y-73956203D02*
G01*
X93600411Y-73975744D01*
X93659781Y-74007478D01*
X93711817Y-74050183D01*
X93754522Y-74102219D01*
X93786256Y-74161589D01*
X93805797Y-74226007D01*
X93813000Y-74299140D01*
X93813000Y-76700860D01*
X93805797Y-76773993D01*
X93786256Y-76838411D01*
X93754522Y-76897781D01*
X93711817Y-76949817D01*
X93659781Y-76992522D01*
X93600411Y-77024256D01*
X93535993Y-77043797D01*
X93462860Y-77051000D01*
X92537140Y-77051000D01*
X92464007Y-77043797D01*
X92399589Y-77024256D01*
X92340219Y-76992522D01*
X92288183Y-76949817D01*
X92245478Y-76897781D01*
X92213744Y-76838411D01*
X92194203Y-76773993D01*
X92187000Y-76700860D01*
X92187000Y-74299140D01*
X92194203Y-74226007D01*
X92213744Y-74161589D01*
X92245478Y-74102219D01*
X92288183Y-74050183D01*
X92340219Y-74007478D01*
X92399589Y-73975744D01*
X92464007Y-73956203D01*
X92537140Y-73949000D01*
X93462860Y-73949000D01*
X93535993Y-73956203D01*
X93535993Y-73956203D01*
G37*
G36*
X152476000Y-77026000D02*
G01*
X151074000Y-77026000D01*
X151074000Y-75974000D01*
X152476000Y-75974000D01*
X152476000Y-77026000D01*
X152476000Y-77026000D01*
G37*
G36*
X148926000Y-77026000D02*
G01*
X147524000Y-77026000D01*
X147524000Y-75974000D01*
X148926000Y-75974000D01*
X148926000Y-77026000D01*
X148926000Y-77026000D01*
G37*
G36*
X115284425Y-74254599D02*
G01*
X115408621Y-74279302D01*
X115545022Y-74335801D01*
X115667779Y-74417825D01*
X115772175Y-74522221D01*
X115854199Y-74644978D01*
X115910698Y-74781379D01*
X115939500Y-74926181D01*
X115939500Y-75073819D01*
X115910698Y-75218621D01*
X115854199Y-75355022D01*
X115772175Y-75477779D01*
X115667779Y-75582175D01*
X115545022Y-75664199D01*
X115408621Y-75720698D01*
X115284425Y-75745401D01*
X115263820Y-75749500D01*
X115116180Y-75749500D01*
X115095575Y-75745401D01*
X114971379Y-75720698D01*
X114834978Y-75664199D01*
X114712221Y-75582175D01*
X114607825Y-75477779D01*
X114525801Y-75355022D01*
X114469302Y-75218621D01*
X114440500Y-75073819D01*
X114440500Y-74926181D01*
X114469302Y-74781379D01*
X114525801Y-74644978D01*
X114607825Y-74522221D01*
X114712221Y-74417825D01*
X114834978Y-74335801D01*
X114971379Y-74279302D01*
X115095575Y-74254599D01*
X115116180Y-74250500D01*
X115263820Y-74250500D01*
X115284425Y-74254599D01*
X115284425Y-74254599D01*
G37*
G36*
X123559500Y-75749500D02*
G01*
X122060500Y-75749500D01*
X122060500Y-74250500D01*
X123559500Y-74250500D01*
X123559500Y-75749500D01*
X123559500Y-75749500D01*
G37*
G36*
X117926000Y-75526000D02*
G01*
X116524000Y-75526000D01*
X116524000Y-74474000D01*
X117926000Y-74474000D01*
X117926000Y-75526000D01*
X117926000Y-75526000D01*
G37*
G36*
X121476000Y-75526000D02*
G01*
X120074000Y-75526000D01*
X120074000Y-74474000D01*
X121476000Y-74474000D01*
X121476000Y-75526000D01*
X121476000Y-75526000D01*
G37*
G36*
X103273993Y-73694203D02*
G01*
X103338411Y-73713744D01*
X103397781Y-73745478D01*
X103449817Y-73788183D01*
X103492522Y-73840219D01*
X103524256Y-73899589D01*
X103543797Y-73964007D01*
X103551000Y-74037140D01*
X103551000Y-74962860D01*
X103543797Y-75035993D01*
X103524256Y-75100411D01*
X103492522Y-75159781D01*
X103449817Y-75211817D01*
X103397781Y-75254522D01*
X103338411Y-75286256D01*
X103273993Y-75305797D01*
X103200860Y-75313000D01*
X100799140Y-75313000D01*
X100726007Y-75305797D01*
X100661589Y-75286256D01*
X100602219Y-75254522D01*
X100550183Y-75211817D01*
X100507478Y-75159781D01*
X100475744Y-75100411D01*
X100456203Y-75035993D01*
X100449000Y-74962860D01*
X100449000Y-74037140D01*
X100456203Y-73964007D01*
X100475744Y-73899589D01*
X100507478Y-73840219D01*
X100550183Y-73788183D01*
X100602219Y-73745478D01*
X100661589Y-73713744D01*
X100726007Y-73694203D01*
X100799140Y-73687000D01*
X103200860Y-73687000D01*
X103273993Y-73694203D01*
X103273993Y-73694203D01*
G37*
G36*
X78913855Y-73852140D02*
G01*
X78977618Y-73858420D01*
X79068404Y-73885960D01*
X79100336Y-73895646D01*
X79213425Y-73956094D01*
X79312554Y-74037446D01*
X79393906Y-74136575D01*
X79454354Y-74249664D01*
X79462402Y-74276196D01*
X79491580Y-74372382D01*
X79504149Y-74500000D01*
X79491580Y-74627618D01*
X79478188Y-74671764D01*
X79454354Y-74750336D01*
X79393906Y-74863425D01*
X79312554Y-74962554D01*
X79213425Y-75043906D01*
X79100336Y-75104354D01*
X79068404Y-75114040D01*
X78977618Y-75141580D01*
X78913855Y-75147860D01*
X78881974Y-75151000D01*
X77018026Y-75151000D01*
X76986145Y-75147860D01*
X76922382Y-75141580D01*
X76831596Y-75114040D01*
X76799664Y-75104354D01*
X76686575Y-75043906D01*
X76587446Y-74962554D01*
X76506094Y-74863425D01*
X76445646Y-74750336D01*
X76421812Y-74671764D01*
X76408420Y-74627618D01*
X76395851Y-74500000D01*
X76408420Y-74372382D01*
X76437598Y-74276196D01*
X76445646Y-74249664D01*
X76506094Y-74136575D01*
X76587446Y-74037446D01*
X76686575Y-73956094D01*
X76799664Y-73895646D01*
X76831596Y-73885960D01*
X76922382Y-73858420D01*
X76986145Y-73852140D01*
X77018026Y-73849000D01*
X78881974Y-73849000D01*
X78913855Y-73852140D01*
X78913855Y-73852140D01*
G37*
G36*
X142619083Y-72958335D02*
G01*
X142787840Y-73028236D01*
X142939718Y-73129718D01*
X143068882Y-73258882D01*
X143170364Y-73410760D01*
X143240265Y-73579517D01*
X143275900Y-73758668D01*
X143275900Y-73941332D01*
X143240265Y-74120483D01*
X143170364Y-74289240D01*
X143068882Y-74441118D01*
X142939718Y-74570282D01*
X142787840Y-74671764D01*
X142619083Y-74741665D01*
X142439932Y-74777300D01*
X142257268Y-74777300D01*
X142078117Y-74741665D01*
X141909360Y-74671764D01*
X141757482Y-74570282D01*
X141628318Y-74441118D01*
X141526836Y-74289240D01*
X141456935Y-74120483D01*
X141421300Y-73941332D01*
X141421300Y-73758668D01*
X141456935Y-73579517D01*
X141526836Y-73410760D01*
X141628318Y-73258882D01*
X141757482Y-73129718D01*
X141909360Y-73028236D01*
X142078117Y-72958335D01*
X142257268Y-72922700D01*
X142439932Y-72922700D01*
X142619083Y-72958335D01*
X142619083Y-72958335D01*
G37*
G36*
X126921883Y-72958335D02*
G01*
X127090640Y-73028236D01*
X127242518Y-73129718D01*
X127371682Y-73258882D01*
X127473164Y-73410760D01*
X127543065Y-73579517D01*
X127578700Y-73758668D01*
X127578700Y-73941332D01*
X127543065Y-74120483D01*
X127473164Y-74289240D01*
X127371682Y-74441118D01*
X127242518Y-74570282D01*
X127090640Y-74671764D01*
X126921883Y-74741665D01*
X126742732Y-74777300D01*
X126560068Y-74777300D01*
X126380917Y-74741665D01*
X126212160Y-74671764D01*
X126060282Y-74570282D01*
X125931118Y-74441118D01*
X125829636Y-74289240D01*
X125759735Y-74120483D01*
X125724100Y-73941332D01*
X125724100Y-73758668D01*
X125759735Y-73579517D01*
X125829636Y-73410760D01*
X125931118Y-73258882D01*
X126060282Y-73129718D01*
X126212160Y-73028236D01*
X126380917Y-72958335D01*
X126560068Y-72922700D01*
X126742732Y-72922700D01*
X126921883Y-72958335D01*
X126921883Y-72958335D01*
G37*
G36*
X103273993Y-71694203D02*
G01*
X103338411Y-71713744D01*
X103397781Y-71745478D01*
X103449817Y-71788183D01*
X103492522Y-71840219D01*
X103524256Y-71899589D01*
X103543797Y-71964007D01*
X103551000Y-72037140D01*
X103551000Y-72962860D01*
X103543797Y-73035993D01*
X103524256Y-73100411D01*
X103492522Y-73159781D01*
X103449817Y-73211817D01*
X103397781Y-73254522D01*
X103338411Y-73286256D01*
X103273993Y-73305797D01*
X103200860Y-73313000D01*
X100799140Y-73313000D01*
X100726007Y-73305797D01*
X100661589Y-73286256D01*
X100602219Y-73254522D01*
X100550183Y-73211817D01*
X100507478Y-73159781D01*
X100475744Y-73100411D01*
X100456203Y-73035993D01*
X100449000Y-72962860D01*
X100449000Y-72037140D01*
X100456203Y-71964007D01*
X100475744Y-71899589D01*
X100507478Y-71840219D01*
X100550183Y-71788183D01*
X100602219Y-71745478D01*
X100661589Y-71713744D01*
X100726007Y-71694203D01*
X100799140Y-71687000D01*
X103200860Y-71687000D01*
X103273993Y-71694203D01*
X103273993Y-71694203D01*
G37*
G36*
X78863855Y-71852140D02*
G01*
X78927618Y-71858420D01*
X79018404Y-71885960D01*
X79050336Y-71895646D01*
X79163425Y-71956094D01*
X79262554Y-72037446D01*
X79343906Y-72136575D01*
X79404354Y-72249664D01*
X79404355Y-72249668D01*
X79441580Y-72372382D01*
X79454149Y-72500000D01*
X79441580Y-72627618D01*
X79414040Y-72718404D01*
X79404354Y-72750336D01*
X79343906Y-72863425D01*
X79262554Y-72962554D01*
X79163425Y-73043906D01*
X79050336Y-73104354D01*
X79018404Y-73114040D01*
X78927618Y-73141580D01*
X78863855Y-73147860D01*
X78831974Y-73151000D01*
X76968026Y-73151000D01*
X76936145Y-73147860D01*
X76872382Y-73141580D01*
X76781596Y-73114040D01*
X76749664Y-73104354D01*
X76636575Y-73043906D01*
X76537446Y-72962554D01*
X76456094Y-72863425D01*
X76395646Y-72750336D01*
X76385960Y-72718404D01*
X76358420Y-72627618D01*
X76345851Y-72500000D01*
X76358420Y-72372382D01*
X76395645Y-72249668D01*
X76395646Y-72249664D01*
X76456094Y-72136575D01*
X76537446Y-72037446D01*
X76636575Y-71956094D01*
X76749664Y-71895646D01*
X76781596Y-71885960D01*
X76872382Y-71858420D01*
X76936145Y-71852140D01*
X76968026Y-71849000D01*
X78831974Y-71849000D01*
X78863855Y-71852140D01*
X78863855Y-71852140D01*
G37*
G36*
X127379083Y-70418335D02*
G01*
X127547840Y-70488236D01*
X127699718Y-70589718D01*
X127828882Y-70718882D01*
X127930364Y-70870760D01*
X128000265Y-71039517D01*
X128035900Y-71218668D01*
X128035900Y-71401332D01*
X128000265Y-71580483D01*
X127930364Y-71749240D01*
X127828882Y-71901118D01*
X127699718Y-72030282D01*
X127547840Y-72131764D01*
X127379083Y-72201665D01*
X127199932Y-72237300D01*
X127017268Y-72237300D01*
X126838117Y-72201665D01*
X126669360Y-72131764D01*
X126517482Y-72030282D01*
X126388318Y-71901118D01*
X126286836Y-71749240D01*
X126216935Y-71580483D01*
X126181300Y-71401332D01*
X126181300Y-71218668D01*
X126216935Y-71039517D01*
X126286836Y-70870760D01*
X126388318Y-70718882D01*
X126517482Y-70589718D01*
X126669360Y-70488236D01*
X126838117Y-70418335D01*
X127017268Y-70382700D01*
X127199932Y-70382700D01*
X127379083Y-70418335D01*
X127379083Y-70418335D01*
G37*
G36*
X142161883Y-70418335D02*
G01*
X142330640Y-70488236D01*
X142482518Y-70589718D01*
X142611682Y-70718882D01*
X142713164Y-70870760D01*
X142783065Y-71039517D01*
X142818700Y-71218668D01*
X142818700Y-71401332D01*
X142783065Y-71580483D01*
X142713164Y-71749240D01*
X142611682Y-71901118D01*
X142482518Y-72030282D01*
X142330640Y-72131764D01*
X142161883Y-72201665D01*
X141982732Y-72237300D01*
X141800068Y-72237300D01*
X141620917Y-72201665D01*
X141452160Y-72131764D01*
X141300282Y-72030282D01*
X141171118Y-71901118D01*
X141069636Y-71749240D01*
X140999735Y-71580483D01*
X140964100Y-71401332D01*
X140964100Y-71218668D01*
X140999735Y-71039517D01*
X141069636Y-70870760D01*
X141171118Y-70718882D01*
X141300282Y-70589718D01*
X141452160Y-70488236D01*
X141620917Y-70418335D01*
X141800068Y-70382700D01*
X141982732Y-70382700D01*
X142161883Y-70418335D01*
X142161883Y-70418335D01*
G37*
G36*
X103273993Y-69694203D02*
G01*
X103338411Y-69713744D01*
X103397781Y-69745478D01*
X103449817Y-69788183D01*
X103492522Y-69840219D01*
X103524256Y-69899589D01*
X103543797Y-69964007D01*
X103551000Y-70037140D01*
X103551000Y-70962860D01*
X103543797Y-71035993D01*
X103524256Y-71100411D01*
X103492522Y-71159781D01*
X103449817Y-71211817D01*
X103397781Y-71254522D01*
X103338411Y-71286256D01*
X103273993Y-71305797D01*
X103200860Y-71313000D01*
X100799140Y-71313000D01*
X100726007Y-71305797D01*
X100661589Y-71286256D01*
X100602219Y-71254522D01*
X100550183Y-71211817D01*
X100507478Y-71159781D01*
X100475744Y-71100411D01*
X100456203Y-71035993D01*
X100449000Y-70962860D01*
X100449000Y-70037140D01*
X100456203Y-69964007D01*
X100475744Y-69899589D01*
X100507478Y-69840219D01*
X100550183Y-69788183D01*
X100602219Y-69745478D01*
X100661589Y-69713744D01*
X100726007Y-69694203D01*
X100799140Y-69687000D01*
X103200860Y-69687000D01*
X103273993Y-69694203D01*
X103273993Y-69694203D01*
G37*
G36*
X86773993Y-69194203D02*
G01*
X86838411Y-69213744D01*
X86897781Y-69245478D01*
X86949817Y-69288183D01*
X86992522Y-69340219D01*
X87024256Y-69399589D01*
X87043797Y-69464007D01*
X87051000Y-69537140D01*
X87051000Y-70462860D01*
X87043797Y-70535993D01*
X87024256Y-70600411D01*
X86992522Y-70659781D01*
X86949817Y-70711817D01*
X86897781Y-70754522D01*
X86838411Y-70786256D01*
X86773993Y-70805797D01*
X86700860Y-70813000D01*
X84299140Y-70813000D01*
X84226007Y-70805797D01*
X84161589Y-70786256D01*
X84102219Y-70754522D01*
X84050183Y-70711817D01*
X84007478Y-70659781D01*
X83975744Y-70600411D01*
X83956203Y-70535993D01*
X83949000Y-70462860D01*
X83949000Y-69537140D01*
X83956203Y-69464007D01*
X83975744Y-69399589D01*
X84007478Y-69340219D01*
X84050183Y-69288183D01*
X84102219Y-69245478D01*
X84161589Y-69213744D01*
X84226007Y-69194203D01*
X84299140Y-69187000D01*
X86700860Y-69187000D01*
X86773993Y-69194203D01*
X86773993Y-69194203D01*
G37*
G36*
X78863855Y-69352140D02*
G01*
X78927618Y-69358420D01*
X79018404Y-69385960D01*
X79050336Y-69395646D01*
X79163425Y-69456094D01*
X79262554Y-69537446D01*
X79343906Y-69636575D01*
X79404354Y-69749664D01*
X79404355Y-69749668D01*
X79441580Y-69872382D01*
X79454149Y-70000000D01*
X79441580Y-70127618D01*
X79414040Y-70218404D01*
X79404354Y-70250336D01*
X79343906Y-70363425D01*
X79262554Y-70462554D01*
X79163425Y-70543906D01*
X79050336Y-70604354D01*
X79018404Y-70614040D01*
X78927618Y-70641580D01*
X78863855Y-70647860D01*
X78831974Y-70651000D01*
X76968026Y-70651000D01*
X76936145Y-70647860D01*
X76872382Y-70641580D01*
X76781596Y-70614040D01*
X76749664Y-70604354D01*
X76636575Y-70543906D01*
X76537446Y-70462554D01*
X76456094Y-70363425D01*
X76395646Y-70250336D01*
X76385960Y-70218404D01*
X76358420Y-70127618D01*
X76345851Y-70000000D01*
X76358420Y-69872382D01*
X76395645Y-69749668D01*
X76395646Y-69749664D01*
X76456094Y-69636575D01*
X76537446Y-69537446D01*
X76636575Y-69456094D01*
X76749664Y-69395646D01*
X76781596Y-69385960D01*
X76872382Y-69358420D01*
X76936145Y-69352140D01*
X76968026Y-69349000D01*
X78831974Y-69349000D01*
X78863855Y-69352140D01*
X78863855Y-69352140D01*
G37*
G36*
X147940721Y-68670174D02*
G01*
X148040995Y-68711709D01*
X148085812Y-68741655D01*
X148131242Y-68772010D01*
X148207990Y-68848758D01*
X148238345Y-68894188D01*
X148268291Y-68939005D01*
X148309826Y-69039279D01*
X148331000Y-69145730D01*
X148331000Y-69254270D01*
X148309826Y-69360721D01*
X148268291Y-69460995D01*
X148268290Y-69460996D01*
X148207990Y-69551242D01*
X148131242Y-69627990D01*
X148085812Y-69658345D01*
X148040995Y-69688291D01*
X147940721Y-69729826D01*
X147834270Y-69751000D01*
X147725730Y-69751000D01*
X147619279Y-69729826D01*
X147519005Y-69688291D01*
X147474188Y-69658345D01*
X147428758Y-69627990D01*
X147352010Y-69551242D01*
X147291710Y-69460996D01*
X147291709Y-69460995D01*
X147250174Y-69360721D01*
X147229000Y-69254270D01*
X147229000Y-69145730D01*
X147250174Y-69039279D01*
X147291709Y-68939005D01*
X147321655Y-68894188D01*
X147352010Y-68848758D01*
X147428758Y-68772010D01*
X147474188Y-68741655D01*
X147519005Y-68711709D01*
X147619279Y-68670174D01*
X147725730Y-68649000D01*
X147834270Y-68649000D01*
X147940721Y-68670174D01*
X147940721Y-68670174D01*
G37*
G36*
X158380721Y-68670174D02*
G01*
X158480995Y-68711709D01*
X158525812Y-68741655D01*
X158571242Y-68772010D01*
X158647990Y-68848758D01*
X158678345Y-68894188D01*
X158708291Y-68939005D01*
X158749826Y-69039279D01*
X158771000Y-69145730D01*
X158771000Y-69254270D01*
X158749826Y-69360721D01*
X158708291Y-69460995D01*
X158708290Y-69460996D01*
X158647990Y-69551242D01*
X158571242Y-69627990D01*
X158525812Y-69658345D01*
X158480995Y-69688291D01*
X158380721Y-69729826D01*
X158274270Y-69751000D01*
X158165730Y-69751000D01*
X158059279Y-69729826D01*
X157959005Y-69688291D01*
X157914188Y-69658345D01*
X157868758Y-69627990D01*
X157792010Y-69551242D01*
X157731710Y-69460996D01*
X157731709Y-69460995D01*
X157690174Y-69360721D01*
X157669000Y-69254270D01*
X157669000Y-69145730D01*
X157690174Y-69039279D01*
X157731709Y-68939005D01*
X157761655Y-68894188D01*
X157792010Y-68848758D01*
X157868758Y-68772010D01*
X157914188Y-68741655D01*
X157959005Y-68711709D01*
X158059279Y-68670174D01*
X158165730Y-68649000D01*
X158274270Y-68649000D01*
X158380721Y-68670174D01*
X158380721Y-68670174D01*
G37*
G36*
X142619083Y-67878335D02*
G01*
X142787840Y-67948236D01*
X142939718Y-68049718D01*
X143068882Y-68178882D01*
X143170364Y-68330760D01*
X143240265Y-68499517D01*
X143275900Y-68678668D01*
X143275900Y-68861332D01*
X143240265Y-69040483D01*
X143170364Y-69209240D01*
X143068882Y-69361118D01*
X142939718Y-69490282D01*
X142787840Y-69591764D01*
X142619083Y-69661665D01*
X142439932Y-69697300D01*
X142257268Y-69697300D01*
X142078117Y-69661665D01*
X141909360Y-69591764D01*
X141757482Y-69490282D01*
X141628318Y-69361118D01*
X141526836Y-69209240D01*
X141456935Y-69040483D01*
X141421300Y-68861332D01*
X141421300Y-68678668D01*
X141456935Y-68499517D01*
X141526836Y-68330760D01*
X141628318Y-68178882D01*
X141757482Y-68049718D01*
X141909360Y-67948236D01*
X142078117Y-67878335D01*
X142257268Y-67842700D01*
X142439932Y-67842700D01*
X142619083Y-67878335D01*
X142619083Y-67878335D01*
G37*
G36*
X126921883Y-67878335D02*
G01*
X127090640Y-67948236D01*
X127242518Y-68049718D01*
X127371682Y-68178882D01*
X127473164Y-68330760D01*
X127543065Y-68499517D01*
X127578700Y-68678668D01*
X127578700Y-68861332D01*
X127543065Y-69040483D01*
X127473164Y-69209240D01*
X127371682Y-69361118D01*
X127242518Y-69490282D01*
X127090640Y-69591764D01*
X126921883Y-69661665D01*
X126742732Y-69697300D01*
X126560068Y-69697300D01*
X126380917Y-69661665D01*
X126212160Y-69591764D01*
X126060282Y-69490282D01*
X125931118Y-69361118D01*
X125829636Y-69209240D01*
X125759735Y-69040483D01*
X125724100Y-68861332D01*
X125724100Y-68678668D01*
X125759735Y-68499517D01*
X125829636Y-68330760D01*
X125931118Y-68178882D01*
X126060282Y-68049718D01*
X126212160Y-67948236D01*
X126380917Y-67878335D01*
X126560068Y-67842700D01*
X126742732Y-67842700D01*
X126921883Y-67878335D01*
X126921883Y-67878335D01*
G37*
G36*
X103273993Y-67694203D02*
G01*
X103338411Y-67713744D01*
X103397781Y-67745478D01*
X103449817Y-67788183D01*
X103492522Y-67840219D01*
X103524256Y-67899589D01*
X103543797Y-67964007D01*
X103551000Y-68037140D01*
X103551000Y-68962860D01*
X103543797Y-69035993D01*
X103524256Y-69100411D01*
X103492522Y-69159781D01*
X103449817Y-69211817D01*
X103397781Y-69254522D01*
X103338411Y-69286256D01*
X103273993Y-69305797D01*
X103200860Y-69313000D01*
X100799140Y-69313000D01*
X100726007Y-69305797D01*
X100661589Y-69286256D01*
X100602219Y-69254522D01*
X100550183Y-69211817D01*
X100507478Y-69159781D01*
X100475744Y-69100411D01*
X100456203Y-69035993D01*
X100449000Y-68962860D01*
X100449000Y-68037140D01*
X100456203Y-67964007D01*
X100475744Y-67899589D01*
X100507478Y-67840219D01*
X100550183Y-67788183D01*
X100602219Y-67745478D01*
X100661589Y-67713744D01*
X100726007Y-67694203D01*
X100799140Y-67687000D01*
X103200860Y-67687000D01*
X103273993Y-67694203D01*
X103273993Y-67694203D01*
G37*
G36*
X86773993Y-67194203D02*
G01*
X86838411Y-67213744D01*
X86897781Y-67245478D01*
X86949817Y-67288183D01*
X86992522Y-67340219D01*
X87024256Y-67399589D01*
X87043797Y-67464007D01*
X87051000Y-67537140D01*
X87051000Y-68462860D01*
X87043797Y-68535993D01*
X87024256Y-68600411D01*
X86992522Y-68659781D01*
X86949817Y-68711817D01*
X86897781Y-68754522D01*
X86838411Y-68786256D01*
X86773993Y-68805797D01*
X86700860Y-68813000D01*
X84299140Y-68813000D01*
X84226007Y-68805797D01*
X84161589Y-68786256D01*
X84102219Y-68754522D01*
X84050183Y-68711817D01*
X84007478Y-68659781D01*
X83975744Y-68600411D01*
X83956203Y-68535993D01*
X83949000Y-68462860D01*
X83949000Y-67537140D01*
X83956203Y-67464007D01*
X83975744Y-67399589D01*
X84007478Y-67340219D01*
X84050183Y-67288183D01*
X84102219Y-67245478D01*
X84161589Y-67213744D01*
X84226007Y-67194203D01*
X84299140Y-67187000D01*
X86700860Y-67187000D01*
X86773993Y-67194203D01*
X86773993Y-67194203D01*
G37*
G36*
X71713855Y-66452140D02*
G01*
X71777618Y-66458420D01*
X71867891Y-66485804D01*
X71900336Y-66495646D01*
X72013425Y-66556094D01*
X72112554Y-66637446D01*
X72193906Y-66736575D01*
X72254354Y-66849664D01*
X72254355Y-66849668D01*
X72291580Y-66972382D01*
X72304149Y-67100000D01*
X72291580Y-67227618D01*
X72264040Y-67318404D01*
X72254354Y-67350336D01*
X72193906Y-67463425D01*
X72112554Y-67562554D01*
X72013425Y-67643906D01*
X71900336Y-67704354D01*
X71869381Y-67713744D01*
X71777618Y-67741580D01*
X71713855Y-67747860D01*
X71681974Y-67751000D01*
X69818026Y-67751000D01*
X69786145Y-67747860D01*
X69722382Y-67741580D01*
X69630619Y-67713744D01*
X69599664Y-67704354D01*
X69486575Y-67643906D01*
X69387446Y-67562554D01*
X69306094Y-67463425D01*
X69245646Y-67350336D01*
X69235960Y-67318404D01*
X69208420Y-67227618D01*
X69195851Y-67100000D01*
X69208420Y-66972382D01*
X69245645Y-66849668D01*
X69245646Y-66849664D01*
X69306094Y-66736575D01*
X69387446Y-66637446D01*
X69486575Y-66556094D01*
X69599664Y-66495646D01*
X69632109Y-66485804D01*
X69722382Y-66458420D01*
X69786145Y-66452140D01*
X69818026Y-66449000D01*
X71681974Y-66449000D01*
X71713855Y-66452140D01*
X71713855Y-66452140D01*
G37*
G36*
X142161883Y-65338335D02*
G01*
X142330640Y-65408236D01*
X142482518Y-65509718D01*
X142611682Y-65638882D01*
X142713164Y-65790760D01*
X142783065Y-65959517D01*
X142818700Y-66138668D01*
X142818700Y-66321332D01*
X142783065Y-66500483D01*
X142713164Y-66669240D01*
X142611682Y-66821118D01*
X142482518Y-66950282D01*
X142330640Y-67051764D01*
X142161883Y-67121665D01*
X141982732Y-67157300D01*
X141800068Y-67157300D01*
X141620917Y-67121665D01*
X141452160Y-67051764D01*
X141300282Y-66950282D01*
X141171118Y-66821118D01*
X141069636Y-66669240D01*
X140999735Y-66500483D01*
X140964100Y-66321332D01*
X140964100Y-66138668D01*
X140999735Y-65959517D01*
X141069636Y-65790760D01*
X141171118Y-65638882D01*
X141300282Y-65509718D01*
X141452160Y-65408236D01*
X141620917Y-65338335D01*
X141800068Y-65302700D01*
X141982732Y-65302700D01*
X142161883Y-65338335D01*
X142161883Y-65338335D01*
G37*
G36*
X127379083Y-65338335D02*
G01*
X127547840Y-65408236D01*
X127699718Y-65509718D01*
X127828882Y-65638882D01*
X127930364Y-65790760D01*
X128000265Y-65959517D01*
X128035900Y-66138668D01*
X128035900Y-66321332D01*
X128000265Y-66500483D01*
X127930364Y-66669240D01*
X127828882Y-66821118D01*
X127699718Y-66950282D01*
X127547840Y-67051764D01*
X127379083Y-67121665D01*
X127199932Y-67157300D01*
X127017268Y-67157300D01*
X126838117Y-67121665D01*
X126669360Y-67051764D01*
X126517482Y-66950282D01*
X126388318Y-66821118D01*
X126286836Y-66669240D01*
X126216935Y-66500483D01*
X126181300Y-66321332D01*
X126181300Y-66138668D01*
X126216935Y-65959517D01*
X126286836Y-65790760D01*
X126388318Y-65638882D01*
X126517482Y-65509718D01*
X126669360Y-65408236D01*
X126838117Y-65338335D01*
X127017268Y-65302700D01*
X127199932Y-65302700D01*
X127379083Y-65338335D01*
X127379083Y-65338335D01*
G37*
G36*
X153598254Y-63027818D02*
G01*
X153971511Y-63182426D01*
X153971513Y-63182427D01*
X154307436Y-63406884D01*
X154593116Y-63692564D01*
X154748857Y-63925646D01*
X154817574Y-64028489D01*
X154972182Y-64401746D01*
X155051000Y-64797993D01*
X155051000Y-65202007D01*
X154972182Y-65598254D01*
X154842839Y-65910515D01*
X154817573Y-65971513D01*
X154593116Y-66307436D01*
X154307436Y-66593116D01*
X153971513Y-66817573D01*
X153971512Y-66817574D01*
X153971511Y-66817574D01*
X153598254Y-66972182D01*
X153202007Y-67051000D01*
X152797993Y-67051000D01*
X152401746Y-66972182D01*
X152028489Y-66817574D01*
X152028488Y-66817574D01*
X152028487Y-66817573D01*
X151692564Y-66593116D01*
X151406884Y-66307436D01*
X151182427Y-65971513D01*
X151157161Y-65910515D01*
X151027818Y-65598254D01*
X150949000Y-65202007D01*
X150949000Y-64797993D01*
X151027818Y-64401746D01*
X151182426Y-64028489D01*
X151251144Y-63925646D01*
X151406884Y-63692564D01*
X151692564Y-63406884D01*
X152028487Y-63182427D01*
X152028489Y-63182426D01*
X152401746Y-63027818D01*
X152797993Y-62949000D01*
X153202007Y-62949000D01*
X153598254Y-63027818D01*
X153598254Y-63027818D01*
G37*
G36*
X86773993Y-65194203D02*
G01*
X86838411Y-65213744D01*
X86897781Y-65245478D01*
X86949817Y-65288183D01*
X86992522Y-65340219D01*
X87024256Y-65399589D01*
X87043797Y-65464007D01*
X87051000Y-65537140D01*
X87051000Y-66462860D01*
X87043797Y-66535993D01*
X87024256Y-66600411D01*
X86992522Y-66659781D01*
X86949817Y-66711817D01*
X86897781Y-66754522D01*
X86838411Y-66786256D01*
X86773993Y-66805797D01*
X86700860Y-66813000D01*
X84299140Y-66813000D01*
X84226007Y-66805797D01*
X84161589Y-66786256D01*
X84102219Y-66754522D01*
X84050183Y-66711817D01*
X84007478Y-66659781D01*
X83975744Y-66600411D01*
X83956203Y-66535993D01*
X83949000Y-66462860D01*
X83949000Y-65537140D01*
X83956203Y-65464007D01*
X83975744Y-65399589D01*
X84007478Y-65340219D01*
X84050183Y-65288183D01*
X84102219Y-65245478D01*
X84161589Y-65213744D01*
X84226007Y-65194203D01*
X84299140Y-65187000D01*
X86700860Y-65187000D01*
X86773993Y-65194203D01*
X86773993Y-65194203D01*
G37*
G36*
X103273993Y-65194203D02*
G01*
X103338411Y-65213744D01*
X103397781Y-65245478D01*
X103449817Y-65288183D01*
X103492522Y-65340219D01*
X103524256Y-65399589D01*
X103543797Y-65464007D01*
X103551000Y-65537140D01*
X103551000Y-66462860D01*
X103543797Y-66535993D01*
X103524256Y-66600411D01*
X103492522Y-66659781D01*
X103449817Y-66711817D01*
X103397781Y-66754522D01*
X103338411Y-66786256D01*
X103273993Y-66805797D01*
X103200860Y-66813000D01*
X100799140Y-66813000D01*
X100726007Y-66805797D01*
X100661589Y-66786256D01*
X100602219Y-66754522D01*
X100550183Y-66711817D01*
X100507478Y-66659781D01*
X100475744Y-66600411D01*
X100456203Y-66535993D01*
X100449000Y-66462860D01*
X100449000Y-65537140D01*
X100456203Y-65464007D01*
X100475744Y-65399589D01*
X100507478Y-65340219D01*
X100550183Y-65288183D01*
X100602219Y-65245478D01*
X100661589Y-65213744D01*
X100726007Y-65194203D01*
X100799140Y-65187000D01*
X103200860Y-65187000D01*
X103273993Y-65194203D01*
X103273993Y-65194203D01*
G37*
G36*
X116598254Y-62527818D02*
G01*
X116916841Y-62659781D01*
X116971513Y-62682427D01*
X117307436Y-62906884D01*
X117593116Y-63192564D01*
X117805889Y-63511000D01*
X117817574Y-63528489D01*
X117972182Y-63901746D01*
X118051000Y-64297993D01*
X118051000Y-64702007D01*
X117972182Y-65098254D01*
X117831480Y-65437939D01*
X117817573Y-65471513D01*
X117593116Y-65807436D01*
X117307436Y-66093116D01*
X116971513Y-66317573D01*
X116971512Y-66317574D01*
X116971511Y-66317574D01*
X116598254Y-66472182D01*
X116202007Y-66551000D01*
X115797993Y-66551000D01*
X115401746Y-66472182D01*
X115028489Y-66317574D01*
X115028488Y-66317574D01*
X115028487Y-66317573D01*
X114692564Y-66093116D01*
X114406884Y-65807436D01*
X114182427Y-65471513D01*
X114168520Y-65437939D01*
X114027818Y-65098254D01*
X113949000Y-64702007D01*
X113949000Y-64297993D01*
X114027818Y-63901746D01*
X114182426Y-63528489D01*
X114194112Y-63511000D01*
X114406884Y-63192564D01*
X114692564Y-62906884D01*
X115028487Y-62682427D01*
X115083159Y-62659781D01*
X115401746Y-62527818D01*
X115797993Y-62449000D01*
X116202007Y-62449000D01*
X116598254Y-62527818D01*
X116598254Y-62527818D01*
G37*
G36*
X158791981Y-64037468D02*
G01*
X158974151Y-64112926D01*
X159138100Y-64222473D01*
X159277527Y-64361900D01*
X159387074Y-64525849D01*
X159387075Y-64525851D01*
X159391517Y-64536575D01*
X159462532Y-64708019D01*
X159501000Y-64901410D01*
X159501000Y-65098590D01*
X159462532Y-65291981D01*
X159387074Y-65474151D01*
X159277527Y-65638100D01*
X159138100Y-65777527D01*
X158974151Y-65887074D01*
X158791981Y-65962532D01*
X158598591Y-66001000D01*
X158401409Y-66001000D01*
X158208019Y-65962532D01*
X158082440Y-65910515D01*
X158058991Y-65903402D01*
X158034605Y-65901000D01*
X157991258Y-65901000D01*
X157966488Y-65896073D01*
X157817188Y-65866376D01*
X157653216Y-65798456D01*
X157505646Y-65699853D01*
X157380147Y-65574354D01*
X157281544Y-65426784D01*
X157213624Y-65262812D01*
X157179000Y-65088741D01*
X157179000Y-64911259D01*
X157213624Y-64737188D01*
X157281544Y-64573216D01*
X157380147Y-64425646D01*
X157505646Y-64300147D01*
X157653216Y-64201544D01*
X157817188Y-64133624D01*
X157966488Y-64103927D01*
X157991258Y-64099000D01*
X158034605Y-64099000D01*
X158058991Y-64096598D01*
X158082440Y-64089485D01*
X158121717Y-64073216D01*
X158208019Y-64037468D01*
X158401409Y-63999000D01*
X158598591Y-63999000D01*
X158791981Y-64037468D01*
X158791981Y-64037468D01*
G37*
G36*
X147791981Y-64037468D02*
G01*
X147878283Y-64073216D01*
X147917560Y-64089485D01*
X147941009Y-64096598D01*
X147965395Y-64099000D01*
X148008742Y-64099000D01*
X148033512Y-64103927D01*
X148182812Y-64133624D01*
X148346784Y-64201544D01*
X148494354Y-64300147D01*
X148619853Y-64425646D01*
X148718456Y-64573216D01*
X148786376Y-64737188D01*
X148821000Y-64911259D01*
X148821000Y-65088741D01*
X148786376Y-65262812D01*
X148718456Y-65426784D01*
X148619853Y-65574354D01*
X148494354Y-65699853D01*
X148346784Y-65798456D01*
X148182812Y-65866376D01*
X148033512Y-65896073D01*
X148008742Y-65901000D01*
X147965395Y-65901000D01*
X147941009Y-65903402D01*
X147917560Y-65910515D01*
X147791981Y-65962532D01*
X147598591Y-66001000D01*
X147401409Y-66001000D01*
X147208019Y-65962532D01*
X147025849Y-65887074D01*
X146861900Y-65777527D01*
X146722473Y-65638100D01*
X146612926Y-65474151D01*
X146537468Y-65291981D01*
X146499000Y-65098590D01*
X146499000Y-64901410D01*
X146537468Y-64708019D01*
X146608483Y-64536575D01*
X146612925Y-64525851D01*
X146612926Y-64525849D01*
X146722473Y-64361900D01*
X146861900Y-64222473D01*
X147025849Y-64112926D01*
X147208019Y-64037468D01*
X147401409Y-63999000D01*
X147598591Y-63999000D01*
X147791981Y-64037468D01*
X147791981Y-64037468D01*
G37*
G36*
X71463855Y-64252140D02*
G01*
X71527618Y-64258420D01*
X71602443Y-64281118D01*
X71650336Y-64295646D01*
X71763425Y-64356094D01*
X71862554Y-64437446D01*
X71943906Y-64536575D01*
X72004354Y-64649664D01*
X72004355Y-64649668D01*
X72041580Y-64772382D01*
X72054149Y-64900000D01*
X72041580Y-65027618D01*
X72014040Y-65118404D01*
X72004354Y-65150336D01*
X71943906Y-65263425D01*
X71862554Y-65362554D01*
X71763425Y-65443906D01*
X71650336Y-65504354D01*
X71618404Y-65514040D01*
X71527618Y-65541580D01*
X71463855Y-65547860D01*
X71431974Y-65551000D01*
X69568026Y-65551000D01*
X69536145Y-65547860D01*
X69472382Y-65541580D01*
X69381596Y-65514040D01*
X69349664Y-65504354D01*
X69236575Y-65443906D01*
X69137446Y-65362554D01*
X69056094Y-65263425D01*
X68995646Y-65150336D01*
X68985960Y-65118404D01*
X68958420Y-65027618D01*
X68945851Y-64900000D01*
X68958420Y-64772382D01*
X68995645Y-64649668D01*
X68995646Y-64649664D01*
X69056094Y-64536575D01*
X69137446Y-64437446D01*
X69236575Y-64356094D01*
X69349664Y-64295646D01*
X69397557Y-64281118D01*
X69472382Y-64258420D01*
X69536145Y-64252140D01*
X69568026Y-64249000D01*
X71431974Y-64249000D01*
X71463855Y-64252140D01*
X71463855Y-64252140D01*
G37*
G36*
X121193512Y-63603927D02*
G01*
X121342812Y-63633624D01*
X121506784Y-63701544D01*
X121654354Y-63800147D01*
X121779853Y-63925646D01*
X121878456Y-64073216D01*
X121946376Y-64237188D01*
X121958899Y-64300148D01*
X121980806Y-64410281D01*
X121981000Y-64411259D01*
X121981000Y-64588741D01*
X121946376Y-64762812D01*
X121878456Y-64926784D01*
X121779853Y-65074354D01*
X121654354Y-65199853D01*
X121506784Y-65298456D01*
X121342812Y-65366376D01*
X121193512Y-65396073D01*
X121168742Y-65401000D01*
X120991258Y-65401000D01*
X120966488Y-65396073D01*
X120817188Y-65366376D01*
X120653216Y-65298456D01*
X120505646Y-65199853D01*
X120380147Y-65074354D01*
X120281544Y-64926784D01*
X120213624Y-64762812D01*
X120179000Y-64588741D01*
X120179000Y-64411259D01*
X120179195Y-64410281D01*
X120201101Y-64300148D01*
X120213624Y-64237188D01*
X120281544Y-64073216D01*
X120380147Y-63925646D01*
X120505646Y-63800147D01*
X120653216Y-63701544D01*
X120817188Y-63633624D01*
X120966488Y-63603927D01*
X120991258Y-63599000D01*
X121168742Y-63599000D01*
X121193512Y-63603927D01*
X121193512Y-63603927D01*
G37*
G36*
X111033512Y-63603927D02*
G01*
X111182812Y-63633624D01*
X111346784Y-63701544D01*
X111494354Y-63800147D01*
X111619853Y-63925646D01*
X111718456Y-64073216D01*
X111786376Y-64237188D01*
X111798899Y-64300148D01*
X111820806Y-64410281D01*
X111821000Y-64411259D01*
X111821000Y-64588741D01*
X111786376Y-64762812D01*
X111718456Y-64926784D01*
X111619853Y-65074354D01*
X111494354Y-65199853D01*
X111346784Y-65298456D01*
X111182812Y-65366376D01*
X111033512Y-65396073D01*
X111008742Y-65401000D01*
X110831258Y-65401000D01*
X110806488Y-65396073D01*
X110657188Y-65366376D01*
X110493216Y-65298456D01*
X110345646Y-65199853D01*
X110220147Y-65074354D01*
X110121544Y-64926784D01*
X110053624Y-64762812D01*
X110019000Y-64588741D01*
X110019000Y-64411259D01*
X110019195Y-64410281D01*
X110041101Y-64300148D01*
X110053624Y-64237188D01*
X110121544Y-64073216D01*
X110220147Y-63925646D01*
X110345646Y-63800147D01*
X110493216Y-63701544D01*
X110657188Y-63633624D01*
X110806488Y-63603927D01*
X110831258Y-63599000D01*
X111008742Y-63599000D01*
X111033512Y-63603927D01*
X111033512Y-63603927D01*
G37*
G36*
X103273993Y-63194203D02*
G01*
X103338411Y-63213744D01*
X103397781Y-63245478D01*
X103449817Y-63288183D01*
X103492522Y-63340219D01*
X103524256Y-63399589D01*
X103543797Y-63464007D01*
X103551000Y-63537140D01*
X103551000Y-64462860D01*
X103543797Y-64535993D01*
X103524256Y-64600411D01*
X103492522Y-64659781D01*
X103449817Y-64711817D01*
X103397781Y-64754522D01*
X103338411Y-64786256D01*
X103273993Y-64805797D01*
X103200860Y-64813000D01*
X100799140Y-64813000D01*
X100726007Y-64805797D01*
X100661589Y-64786256D01*
X100602219Y-64754522D01*
X100550183Y-64711817D01*
X100507478Y-64659781D01*
X100475744Y-64600411D01*
X100456203Y-64535993D01*
X100449000Y-64462860D01*
X100449000Y-63537140D01*
X100456203Y-63464007D01*
X100475744Y-63399589D01*
X100507478Y-63340219D01*
X100550183Y-63288183D01*
X100602219Y-63245478D01*
X100661589Y-63213744D01*
X100726007Y-63194203D01*
X100799140Y-63187000D01*
X103200860Y-63187000D01*
X103273993Y-63194203D01*
X103273993Y-63194203D01*
G37*
G36*
X86773993Y-63194203D02*
G01*
X86838411Y-63213744D01*
X86897781Y-63245478D01*
X86949817Y-63288183D01*
X86992522Y-63340219D01*
X87024256Y-63399589D01*
X87043797Y-63464007D01*
X87051000Y-63537140D01*
X87051000Y-64462860D01*
X87043797Y-64535993D01*
X87024256Y-64600411D01*
X86992522Y-64659781D01*
X86949817Y-64711817D01*
X86897781Y-64754522D01*
X86838411Y-64786256D01*
X86773993Y-64805797D01*
X86700860Y-64813000D01*
X84299140Y-64813000D01*
X84226007Y-64805797D01*
X84161589Y-64786256D01*
X84102219Y-64754522D01*
X84050183Y-64711817D01*
X84007478Y-64659781D01*
X83975744Y-64600411D01*
X83956203Y-64535993D01*
X83949000Y-64462860D01*
X83949000Y-63537140D01*
X83956203Y-63464007D01*
X83975744Y-63399589D01*
X84007478Y-63340219D01*
X84050183Y-63288183D01*
X84102219Y-63245478D01*
X84161589Y-63213744D01*
X84226007Y-63194203D01*
X84299140Y-63187000D01*
X86700860Y-63187000D01*
X86773993Y-63194203D01*
X86773993Y-63194203D01*
G37*
G36*
X142619083Y-62798335D02*
G01*
X142787840Y-62868236D01*
X142939718Y-62969718D01*
X143068882Y-63098882D01*
X143170364Y-63250760D01*
X143240265Y-63419517D01*
X143275900Y-63598668D01*
X143275900Y-63781332D01*
X143240265Y-63960483D01*
X143170364Y-64129240D01*
X143068882Y-64281118D01*
X142939718Y-64410282D01*
X142787840Y-64511764D01*
X142619083Y-64581665D01*
X142439932Y-64617300D01*
X142257268Y-64617300D01*
X142078117Y-64581665D01*
X141909360Y-64511764D01*
X141757482Y-64410282D01*
X141628318Y-64281118D01*
X141526836Y-64129240D01*
X141456935Y-63960483D01*
X141421300Y-63781332D01*
X141421300Y-63598668D01*
X141456935Y-63419517D01*
X141526836Y-63250760D01*
X141628318Y-63098882D01*
X141757482Y-62969718D01*
X141909360Y-62868236D01*
X142078117Y-62798335D01*
X142257268Y-62762700D01*
X142439932Y-62762700D01*
X142619083Y-62798335D01*
X142619083Y-62798335D01*
G37*
G36*
X126921883Y-62798335D02*
G01*
X127090640Y-62868236D01*
X127242518Y-62969718D01*
X127371682Y-63098882D01*
X127473164Y-63250760D01*
X127543065Y-63419517D01*
X127578700Y-63598668D01*
X127578700Y-63781332D01*
X127543065Y-63960483D01*
X127473164Y-64129240D01*
X127371682Y-64281118D01*
X127242518Y-64410282D01*
X127090640Y-64511764D01*
X126921883Y-64581665D01*
X126742732Y-64617300D01*
X126560068Y-64617300D01*
X126380917Y-64581665D01*
X126212160Y-64511764D01*
X126060282Y-64410282D01*
X125931118Y-64281118D01*
X125829636Y-64129240D01*
X125759735Y-63960483D01*
X125724100Y-63781332D01*
X125724100Y-63598668D01*
X125759735Y-63419517D01*
X125829636Y-63250760D01*
X125931118Y-63098882D01*
X126060282Y-62969718D01*
X126212160Y-62868236D01*
X126380917Y-62798335D01*
X126560068Y-62762700D01*
X126742732Y-62762700D01*
X126921883Y-62798335D01*
X126921883Y-62798335D01*
G37*
G36*
X150368210Y-61418489D02*
G01*
X150454950Y-61444802D01*
X150534889Y-61487530D01*
X150604962Y-61545038D01*
X150662470Y-61615111D01*
X150705198Y-61695050D01*
X150731511Y-61781790D01*
X150741000Y-61878140D01*
X150741000Y-63041860D01*
X150731511Y-63138210D01*
X150705198Y-63224950D01*
X150662470Y-63304889D01*
X150604962Y-63374962D01*
X150534889Y-63432470D01*
X150454950Y-63475198D01*
X150368210Y-63501511D01*
X150271860Y-63511000D01*
X148108140Y-63511000D01*
X148011790Y-63501511D01*
X147925050Y-63475198D01*
X147845111Y-63432470D01*
X147775038Y-63374962D01*
X147717530Y-63304889D01*
X147674802Y-63224950D01*
X147648489Y-63138210D01*
X147639000Y-63041860D01*
X147639000Y-61878140D01*
X147648489Y-61781790D01*
X147674802Y-61695050D01*
X147717530Y-61615111D01*
X147775038Y-61545038D01*
X147845111Y-61487530D01*
X147925050Y-61444802D01*
X148011790Y-61418489D01*
X148108140Y-61409000D01*
X150271860Y-61409000D01*
X150368210Y-61418489D01*
X150368210Y-61418489D01*
G37*
G36*
X113771053Y-60776188D02*
G01*
X113859754Y-60794839D01*
X113943116Y-60830440D01*
X114017935Y-60881622D01*
X114081324Y-60946409D01*
X114130859Y-61022323D01*
X114164632Y-61106442D01*
X114182484Y-61201603D01*
X114283907Y-62360881D01*
X114282851Y-62457702D01*
X114264200Y-62546403D01*
X114228598Y-62629768D01*
X114177422Y-62704579D01*
X114112629Y-62767973D01*
X114036713Y-62817510D01*
X113952598Y-62851281D01*
X113857437Y-62869133D01*
X110705769Y-63144868D01*
X110608947Y-63143812D01*
X110520246Y-63125161D01*
X110436884Y-63089560D01*
X110362065Y-63038378D01*
X110298676Y-62973591D01*
X110249141Y-62897677D01*
X110215368Y-62813558D01*
X110197516Y-62718397D01*
X110096093Y-61559119D01*
X110097149Y-61462298D01*
X110115800Y-61373597D01*
X110151402Y-61290232D01*
X110202578Y-61215421D01*
X110267371Y-61152027D01*
X110343287Y-61102490D01*
X110427402Y-61068719D01*
X110522563Y-61050867D01*
X113674231Y-60775132D01*
X113771053Y-60776188D01*
X113771053Y-60776188D01*
G37*
G36*
X103273993Y-61194203D02*
G01*
X103338411Y-61213744D01*
X103397781Y-61245478D01*
X103449817Y-61288183D01*
X103492522Y-61340219D01*
X103524256Y-61399589D01*
X103543797Y-61464007D01*
X103551000Y-61537140D01*
X103551000Y-62462860D01*
X103543797Y-62535993D01*
X103524256Y-62600411D01*
X103492522Y-62659781D01*
X103449817Y-62711817D01*
X103397781Y-62754522D01*
X103338411Y-62786256D01*
X103273993Y-62805797D01*
X103200860Y-62813000D01*
X100799140Y-62813000D01*
X100726007Y-62805797D01*
X100661589Y-62786256D01*
X100602219Y-62754522D01*
X100550183Y-62711817D01*
X100507478Y-62659781D01*
X100475744Y-62600411D01*
X100456203Y-62535993D01*
X100449000Y-62462860D01*
X100449000Y-61537140D01*
X100456203Y-61464007D01*
X100475744Y-61399589D01*
X100507478Y-61340219D01*
X100550183Y-61288183D01*
X100602219Y-61245478D01*
X100661589Y-61213744D01*
X100726007Y-61194203D01*
X100799140Y-61187000D01*
X103200860Y-61187000D01*
X103273993Y-61194203D01*
X103273993Y-61194203D01*
G37*
G36*
X78913855Y-61352140D02*
G01*
X78977618Y-61358420D01*
X79068404Y-61385960D01*
X79100336Y-61395646D01*
X79213425Y-61456094D01*
X79312554Y-61537446D01*
X79393906Y-61636575D01*
X79454354Y-61749664D01*
X79454355Y-61749668D01*
X79491580Y-61872382D01*
X79504149Y-62000000D01*
X79491580Y-62127618D01*
X79481823Y-62159781D01*
X79454354Y-62250336D01*
X79393906Y-62363425D01*
X79312554Y-62462554D01*
X79213425Y-62543906D01*
X79100336Y-62604354D01*
X79068404Y-62614040D01*
X78977618Y-62641580D01*
X78913855Y-62647860D01*
X78881974Y-62651000D01*
X77018026Y-62651000D01*
X76986145Y-62647860D01*
X76922382Y-62641580D01*
X76831596Y-62614040D01*
X76799664Y-62604354D01*
X76686575Y-62543906D01*
X76587446Y-62462554D01*
X76506094Y-62363425D01*
X76445646Y-62250336D01*
X76418177Y-62159781D01*
X76408420Y-62127618D01*
X76395851Y-62000000D01*
X76408420Y-61872382D01*
X76445645Y-61749668D01*
X76445646Y-61749664D01*
X76506094Y-61636575D01*
X76587446Y-61537446D01*
X76686575Y-61456094D01*
X76799664Y-61395646D01*
X76831596Y-61385960D01*
X76922382Y-61358420D01*
X76986145Y-61352140D01*
X77018026Y-61349000D01*
X78881974Y-61349000D01*
X78913855Y-61352140D01*
X78913855Y-61352140D01*
G37*
G36*
X86773993Y-60694203D02*
G01*
X86838411Y-60713744D01*
X86897781Y-60745478D01*
X86949817Y-60788183D01*
X86992522Y-60840219D01*
X87024256Y-60899589D01*
X87043797Y-60964007D01*
X87051000Y-61037140D01*
X87051000Y-61962860D01*
X87043797Y-62035993D01*
X87024256Y-62100411D01*
X86992522Y-62159781D01*
X86949817Y-62211817D01*
X86897781Y-62254522D01*
X86838411Y-62286256D01*
X86773993Y-62305797D01*
X86700860Y-62313000D01*
X84299140Y-62313000D01*
X84226007Y-62305797D01*
X84161589Y-62286256D01*
X84102219Y-62254522D01*
X84050183Y-62211817D01*
X84007478Y-62159781D01*
X83975744Y-62100411D01*
X83956203Y-62035993D01*
X83949000Y-61962860D01*
X83949000Y-61037140D01*
X83956203Y-60964007D01*
X83975744Y-60899589D01*
X84007478Y-60840219D01*
X84050183Y-60788183D01*
X84102219Y-60745478D01*
X84161589Y-60713744D01*
X84226007Y-60694203D01*
X84299140Y-60687000D01*
X86700860Y-60687000D01*
X86773993Y-60694203D01*
X86773993Y-60694203D01*
G37*
G36*
X142161883Y-60258335D02*
G01*
X142330640Y-60328236D01*
X142482518Y-60429718D01*
X142611682Y-60558882D01*
X142713164Y-60710760D01*
X142783065Y-60879517D01*
X142818700Y-61058668D01*
X142818700Y-61241332D01*
X142783065Y-61420483D01*
X142713164Y-61589240D01*
X142611682Y-61741118D01*
X142482518Y-61870282D01*
X142330640Y-61971764D01*
X142161883Y-62041665D01*
X141982732Y-62077300D01*
X141800068Y-62077300D01*
X141620917Y-62041665D01*
X141452160Y-61971764D01*
X141300282Y-61870282D01*
X141171118Y-61741118D01*
X141069636Y-61589240D01*
X140999735Y-61420483D01*
X140964100Y-61241332D01*
X140964100Y-61058668D01*
X140999735Y-60879517D01*
X141069636Y-60710760D01*
X141171118Y-60558882D01*
X141300282Y-60429718D01*
X141452160Y-60328236D01*
X141620917Y-60258335D01*
X141800068Y-60222700D01*
X141982732Y-60222700D01*
X142161883Y-60258335D01*
X142161883Y-60258335D01*
G37*
G36*
X127379083Y-60258335D02*
G01*
X127547840Y-60328236D01*
X127699718Y-60429718D01*
X127828882Y-60558882D01*
X127930364Y-60710760D01*
X128000265Y-60879517D01*
X128035900Y-61058668D01*
X128035900Y-61241332D01*
X128000265Y-61420483D01*
X127930364Y-61589240D01*
X127828882Y-61741118D01*
X127699718Y-61870282D01*
X127547840Y-61971764D01*
X127379083Y-62041665D01*
X127199932Y-62077300D01*
X127017268Y-62077300D01*
X126838117Y-62041665D01*
X126669360Y-61971764D01*
X126517482Y-61870282D01*
X126388318Y-61741118D01*
X126286836Y-61589240D01*
X126216935Y-61420483D01*
X126181300Y-61241332D01*
X126181300Y-61058668D01*
X126216935Y-60879517D01*
X126286836Y-60710760D01*
X126388318Y-60558882D01*
X126517482Y-60429718D01*
X126669360Y-60328236D01*
X126838117Y-60258335D01*
X127017268Y-60222700D01*
X127199932Y-60222700D01*
X127379083Y-60258335D01*
X127379083Y-60258335D01*
G37*
G36*
X103273993Y-59194203D02*
G01*
X103338411Y-59213744D01*
X103397781Y-59245478D01*
X103449817Y-59288183D01*
X103492522Y-59340219D01*
X103524256Y-59399589D01*
X103543797Y-59464007D01*
X103551000Y-59537140D01*
X103551000Y-60462860D01*
X103543797Y-60535993D01*
X103524256Y-60600411D01*
X103492522Y-60659781D01*
X103449817Y-60711817D01*
X103397781Y-60754522D01*
X103338411Y-60786256D01*
X103273993Y-60805797D01*
X103200860Y-60813000D01*
X100799140Y-60813000D01*
X100726007Y-60805797D01*
X100661589Y-60786256D01*
X100602219Y-60754522D01*
X100550183Y-60711817D01*
X100507478Y-60659781D01*
X100475744Y-60600411D01*
X100456203Y-60535993D01*
X100449000Y-60462860D01*
X100449000Y-59537140D01*
X100456203Y-59464007D01*
X100475744Y-59399589D01*
X100507478Y-59340219D01*
X100550183Y-59288183D01*
X100602219Y-59245478D01*
X100661589Y-59213744D01*
X100726007Y-59194203D01*
X100799140Y-59187000D01*
X103200860Y-59187000D01*
X103273993Y-59194203D01*
X103273993Y-59194203D01*
G37*
G36*
X120207437Y-58510867D02*
G01*
X120302597Y-58528719D01*
X120386716Y-58562492D01*
X120462630Y-58612027D01*
X120527417Y-58675416D01*
X120578599Y-58750235D01*
X120614200Y-58833597D01*
X120632851Y-58922298D01*
X120633907Y-59019119D01*
X120532484Y-60178397D01*
X120514632Y-60273559D01*
X120480861Y-60357674D01*
X120431324Y-60433590D01*
X120367930Y-60498383D01*
X120293119Y-60549559D01*
X120209754Y-60585161D01*
X120121053Y-60603812D01*
X120024231Y-60604868D01*
X116872563Y-60329133D01*
X116777403Y-60311281D01*
X116693284Y-60277508D01*
X116617370Y-60227973D01*
X116552583Y-60164584D01*
X116501401Y-60089765D01*
X116465800Y-60006403D01*
X116447149Y-59917702D01*
X116446093Y-59820881D01*
X116547516Y-58661603D01*
X116565368Y-58566441D01*
X116599139Y-58482326D01*
X116648676Y-58406410D01*
X116712070Y-58341617D01*
X116786881Y-58290441D01*
X116870246Y-58254839D01*
X116958947Y-58236188D01*
X117055769Y-58235132D01*
X120207437Y-58510867D01*
X120207437Y-58510867D01*
G37*
G36*
X86773993Y-58694203D02*
G01*
X86838411Y-58713744D01*
X86897781Y-58745478D01*
X86949817Y-58788183D01*
X86992522Y-58840219D01*
X87024256Y-58899589D01*
X87043797Y-58964007D01*
X87051000Y-59037140D01*
X87051000Y-59962860D01*
X87043797Y-60035993D01*
X87024256Y-60100411D01*
X86992522Y-60159781D01*
X86949817Y-60211817D01*
X86897781Y-60254522D01*
X86838411Y-60286256D01*
X86773993Y-60305797D01*
X86700860Y-60313000D01*
X84299140Y-60313000D01*
X84226007Y-60305797D01*
X84161589Y-60286256D01*
X84102219Y-60254522D01*
X84050183Y-60211817D01*
X84007478Y-60159781D01*
X83975744Y-60100411D01*
X83956203Y-60035993D01*
X83949000Y-59962860D01*
X83949000Y-59037140D01*
X83956203Y-58964007D01*
X83975744Y-58899589D01*
X84007478Y-58840219D01*
X84050183Y-58788183D01*
X84102219Y-58745478D01*
X84161589Y-58713744D01*
X84226007Y-58694203D01*
X84299140Y-58687000D01*
X86700860Y-58687000D01*
X86773993Y-58694203D01*
X86773993Y-58694203D01*
G37*
G36*
X78913855Y-58852140D02*
G01*
X78977618Y-58858420D01*
X79068404Y-58885960D01*
X79100336Y-58895646D01*
X79213425Y-58956094D01*
X79312554Y-59037446D01*
X79393906Y-59136575D01*
X79454354Y-59249664D01*
X79454355Y-59249668D01*
X79491580Y-59372382D01*
X79504149Y-59500000D01*
X79491580Y-59627618D01*
X79464040Y-59718404D01*
X79454354Y-59750336D01*
X79393906Y-59863425D01*
X79312554Y-59962554D01*
X79213425Y-60043906D01*
X79100336Y-60104354D01*
X79068404Y-60114040D01*
X78977618Y-60141580D01*
X78913855Y-60147860D01*
X78881974Y-60151000D01*
X77018026Y-60151000D01*
X76986145Y-60147860D01*
X76922382Y-60141580D01*
X76831596Y-60114040D01*
X76799664Y-60104354D01*
X76686575Y-60043906D01*
X76587446Y-59962554D01*
X76506094Y-59863425D01*
X76445646Y-59750336D01*
X76435960Y-59718404D01*
X76408420Y-59627618D01*
X76395851Y-59500000D01*
X76408420Y-59372382D01*
X76445645Y-59249668D01*
X76445646Y-59249664D01*
X76506094Y-59136575D01*
X76587446Y-59037446D01*
X76686575Y-58956094D01*
X76799664Y-58895646D01*
X76831596Y-58885960D01*
X76922382Y-58858420D01*
X76986145Y-58852140D01*
X77018026Y-58849000D01*
X78881974Y-58849000D01*
X78913855Y-58852140D01*
X78913855Y-58852140D01*
G37*
G36*
X126921883Y-57718335D02*
G01*
X127090640Y-57788236D01*
X127242518Y-57889718D01*
X127371682Y-58018882D01*
X127473164Y-58170760D01*
X127543065Y-58339517D01*
X127578700Y-58518668D01*
X127578700Y-58701332D01*
X127543065Y-58880483D01*
X127473164Y-59049240D01*
X127371682Y-59201118D01*
X127242518Y-59330282D01*
X127090640Y-59431764D01*
X126921883Y-59501665D01*
X126742732Y-59537300D01*
X126560068Y-59537300D01*
X126380917Y-59501665D01*
X126212160Y-59431764D01*
X126060282Y-59330282D01*
X125931118Y-59201118D01*
X125829636Y-59049240D01*
X125759735Y-58880483D01*
X125724100Y-58701332D01*
X125724100Y-58518668D01*
X125759735Y-58339517D01*
X125829636Y-58170760D01*
X125931118Y-58018882D01*
X126060282Y-57889718D01*
X126212160Y-57788236D01*
X126380917Y-57718335D01*
X126560068Y-57682700D01*
X126742732Y-57682700D01*
X126921883Y-57718335D01*
X126921883Y-57718335D01*
G37*
G36*
X142619083Y-57718335D02*
G01*
X142787840Y-57788236D01*
X142939718Y-57889718D01*
X143068882Y-58018882D01*
X143170364Y-58170760D01*
X143240265Y-58339517D01*
X143275900Y-58518668D01*
X143275900Y-58701332D01*
X143240265Y-58880483D01*
X143170364Y-59049240D01*
X143068882Y-59201118D01*
X142939718Y-59330282D01*
X142787840Y-59431764D01*
X142619083Y-59501665D01*
X142439932Y-59537300D01*
X142257268Y-59537300D01*
X142078117Y-59501665D01*
X141909360Y-59431764D01*
X141757482Y-59330282D01*
X141628318Y-59201118D01*
X141526836Y-59049240D01*
X141456935Y-58880483D01*
X141421300Y-58701332D01*
X141421300Y-58518668D01*
X141456935Y-58339517D01*
X141526836Y-58170760D01*
X141628318Y-58018882D01*
X141757482Y-57889718D01*
X141909360Y-57788236D01*
X142078117Y-57718335D01*
X142257268Y-57682700D01*
X142439932Y-57682700D01*
X142619083Y-57718335D01*
X142619083Y-57718335D01*
G37*
G36*
X86773993Y-56694203D02*
G01*
X86838411Y-56713744D01*
X86897781Y-56745478D01*
X86949817Y-56788183D01*
X86992522Y-56840219D01*
X87024256Y-56899589D01*
X87043797Y-56964007D01*
X87051000Y-57037140D01*
X87051000Y-57962860D01*
X87043797Y-58035993D01*
X87024256Y-58100411D01*
X86992522Y-58159781D01*
X86949817Y-58211817D01*
X86897781Y-58254522D01*
X86838411Y-58286256D01*
X86773993Y-58305797D01*
X86700860Y-58313000D01*
X84299140Y-58313000D01*
X84226007Y-58305797D01*
X84161589Y-58286256D01*
X84102219Y-58254522D01*
X84050183Y-58211817D01*
X84007478Y-58159781D01*
X83975744Y-58100411D01*
X83956203Y-58035993D01*
X83949000Y-57962860D01*
X83949000Y-57037140D01*
X83956203Y-56964007D01*
X83975744Y-56899589D01*
X84007478Y-56840219D01*
X84050183Y-56788183D01*
X84102219Y-56745478D01*
X84161589Y-56713744D01*
X84226007Y-56694203D01*
X84299140Y-56687000D01*
X86700860Y-56687000D01*
X86773993Y-56694203D01*
X86773993Y-56694203D01*
G37*
G36*
X78863855Y-56852140D02*
G01*
X78927618Y-56858420D01*
X79018404Y-56885960D01*
X79050336Y-56895646D01*
X79163425Y-56956094D01*
X79262554Y-57037446D01*
X79343906Y-57136575D01*
X79404354Y-57249664D01*
X79404355Y-57249668D01*
X79441580Y-57372382D01*
X79454149Y-57500000D01*
X79441580Y-57627618D01*
X79424871Y-57682700D01*
X79404354Y-57750336D01*
X79343906Y-57863425D01*
X79262554Y-57962554D01*
X79163425Y-58043906D01*
X79050336Y-58104354D01*
X79018404Y-58114040D01*
X78927618Y-58141580D01*
X78863855Y-58147860D01*
X78831974Y-58151000D01*
X76968026Y-58151000D01*
X76936145Y-58147860D01*
X76872382Y-58141580D01*
X76781596Y-58114040D01*
X76749664Y-58104354D01*
X76636575Y-58043906D01*
X76537446Y-57962554D01*
X76456094Y-57863425D01*
X76395646Y-57750336D01*
X76375129Y-57682700D01*
X76358420Y-57627618D01*
X76345851Y-57500000D01*
X76358420Y-57372382D01*
X76395645Y-57249668D01*
X76395646Y-57249664D01*
X76456094Y-57136575D01*
X76537446Y-57037446D01*
X76636575Y-56956094D01*
X76749664Y-56895646D01*
X76781596Y-56885960D01*
X76872382Y-56858420D01*
X76936145Y-56852140D01*
X76968026Y-56849000D01*
X78831974Y-56849000D01*
X78863855Y-56852140D01*
X78863855Y-56852140D01*
G37*
G36*
X127379083Y-55178335D02*
G01*
X127547840Y-55248236D01*
X127699718Y-55349718D01*
X127828882Y-55478882D01*
X127930364Y-55630760D01*
X128000265Y-55799517D01*
X128035900Y-55978668D01*
X128035900Y-56161332D01*
X128000265Y-56340483D01*
X127930364Y-56509240D01*
X127828882Y-56661118D01*
X127699718Y-56790282D01*
X127547840Y-56891764D01*
X127379083Y-56961665D01*
X127199932Y-56997300D01*
X127017268Y-56997300D01*
X126838117Y-56961665D01*
X126669360Y-56891764D01*
X126517482Y-56790282D01*
X126388318Y-56661118D01*
X126286836Y-56509240D01*
X126216935Y-56340483D01*
X126181300Y-56161332D01*
X126181300Y-55978668D01*
X126216935Y-55799517D01*
X126286836Y-55630760D01*
X126388318Y-55478882D01*
X126517482Y-55349718D01*
X126669360Y-55248236D01*
X126838117Y-55178335D01*
X127017268Y-55142700D01*
X127199932Y-55142700D01*
X127379083Y-55178335D01*
X127379083Y-55178335D01*
G37*
G36*
X142161883Y-55178335D02*
G01*
X142330640Y-55248236D01*
X142482518Y-55349718D01*
X142611682Y-55478882D01*
X142713164Y-55630760D01*
X142783065Y-55799517D01*
X142818700Y-55978668D01*
X142818700Y-56161332D01*
X142783065Y-56340483D01*
X142713164Y-56509240D01*
X142611682Y-56661118D01*
X142482518Y-56790282D01*
X142330640Y-56891764D01*
X142161883Y-56961665D01*
X141982732Y-56997300D01*
X141800068Y-56997300D01*
X141620917Y-56961665D01*
X141452160Y-56891764D01*
X141300282Y-56790282D01*
X141171118Y-56661118D01*
X141069636Y-56509240D01*
X140999735Y-56340483D01*
X140964100Y-56161332D01*
X140964100Y-55978668D01*
X140999735Y-55799517D01*
X141069636Y-55630760D01*
X141171118Y-55478882D01*
X141300282Y-55349718D01*
X141452160Y-55248236D01*
X141620917Y-55178335D01*
X141800068Y-55142700D01*
X141982732Y-55142700D01*
X142161883Y-55178335D01*
X142161883Y-55178335D01*
G37*
G36*
X86773993Y-54694203D02*
G01*
X86838411Y-54713744D01*
X86897781Y-54745478D01*
X86949817Y-54788183D01*
X86992522Y-54840219D01*
X87024256Y-54899589D01*
X87043797Y-54964007D01*
X87051000Y-55037140D01*
X87051000Y-55962860D01*
X87043797Y-56035993D01*
X87024256Y-56100411D01*
X86992522Y-56159781D01*
X86949817Y-56211817D01*
X86897781Y-56254522D01*
X86838411Y-56286256D01*
X86773993Y-56305797D01*
X86700860Y-56313000D01*
X84299140Y-56313000D01*
X84226007Y-56305797D01*
X84161589Y-56286256D01*
X84102219Y-56254522D01*
X84050183Y-56211817D01*
X84007478Y-56159781D01*
X83975744Y-56100411D01*
X83956203Y-56035993D01*
X83949000Y-55962860D01*
X83949000Y-55037140D01*
X83956203Y-54964007D01*
X83975744Y-54899589D01*
X84007478Y-54840219D01*
X84050183Y-54788183D01*
X84102219Y-54745478D01*
X84161589Y-54713744D01*
X84226007Y-54694203D01*
X84299140Y-54687000D01*
X86700860Y-54687000D01*
X86773993Y-54694203D01*
X86773993Y-54694203D01*
G37*
G36*
X78860027Y-54351763D02*
G01*
X78927618Y-54358420D01*
X79018404Y-54385960D01*
X79050336Y-54395646D01*
X79163425Y-54456094D01*
X79262554Y-54537446D01*
X79343906Y-54636575D01*
X79404354Y-54749664D01*
X79404355Y-54749668D01*
X79441580Y-54872382D01*
X79454149Y-55000000D01*
X79441580Y-55127618D01*
X79426195Y-55178335D01*
X79404354Y-55250336D01*
X79343906Y-55363425D01*
X79262554Y-55462554D01*
X79163425Y-55543906D01*
X79050336Y-55604354D01*
X79018404Y-55614040D01*
X78927618Y-55641580D01*
X78863855Y-55647860D01*
X78831974Y-55651000D01*
X76968026Y-55651000D01*
X76936145Y-55647860D01*
X76872382Y-55641580D01*
X76781596Y-55614040D01*
X76749664Y-55604354D01*
X76636575Y-55543906D01*
X76537446Y-55462554D01*
X76456094Y-55363425D01*
X76395646Y-55250336D01*
X76373805Y-55178335D01*
X76358420Y-55127618D01*
X76345851Y-55000000D01*
X76358420Y-54872382D01*
X76395645Y-54749668D01*
X76395646Y-54749664D01*
X76456094Y-54636575D01*
X76537446Y-54537446D01*
X76636575Y-54456094D01*
X76749664Y-54395646D01*
X76781596Y-54385960D01*
X76872382Y-54358420D01*
X76939973Y-54351763D01*
X76968026Y-54349000D01*
X78831974Y-54349000D01*
X78860027Y-54351763D01*
X78860027Y-54351763D01*
G37*
G36*
X127578700Y-54457300D02*
G01*
X125724100Y-54457300D01*
X125724100Y-52602700D01*
X127578700Y-52602700D01*
X127578700Y-54457300D01*
X127578700Y-54457300D01*
G37*
G36*
X142619083Y-52638335D02*
G01*
X142787840Y-52708236D01*
X142939718Y-52809718D01*
X143068882Y-52938882D01*
X143170364Y-53090760D01*
X143240265Y-53259517D01*
X143275900Y-53438668D01*
X143275900Y-53621332D01*
X143240265Y-53800483D01*
X143170364Y-53969240D01*
X143068882Y-54121118D01*
X142939718Y-54250282D01*
X142787840Y-54351764D01*
X142619083Y-54421665D01*
X142439932Y-54457300D01*
X142257268Y-54457300D01*
X142078117Y-54421665D01*
X141909360Y-54351764D01*
X141757482Y-54250282D01*
X141628318Y-54121118D01*
X141526836Y-53969240D01*
X141456935Y-53800483D01*
X141421300Y-53621332D01*
X141421300Y-53438668D01*
X141456935Y-53259517D01*
X141526836Y-53090760D01*
X141628318Y-52938882D01*
X141757482Y-52809718D01*
X141909360Y-52708236D01*
X142078117Y-52638335D01*
X142257268Y-52602700D01*
X142439932Y-52602700D01*
X142619083Y-52638335D01*
X142619083Y-52638335D01*
G37*
G36*
X155404425Y-52254599D02*
G01*
X155528621Y-52279302D01*
X155665022Y-52335801D01*
X155787779Y-52417825D01*
X155892175Y-52522221D01*
X155974199Y-52644978D01*
X156030698Y-52781379D01*
X156059500Y-52926181D01*
X156059500Y-53073819D01*
X156030698Y-53218621D01*
X155974199Y-53355022D01*
X155892175Y-53477779D01*
X155787779Y-53582175D01*
X155665022Y-53664199D01*
X155528621Y-53720698D01*
X155404425Y-53745401D01*
X155383820Y-53749500D01*
X155236180Y-53749500D01*
X155215575Y-53745401D01*
X155091379Y-53720698D01*
X154954978Y-53664199D01*
X154832221Y-53582175D01*
X154727825Y-53477779D01*
X154645801Y-53355022D01*
X154589302Y-53218621D01*
X154560500Y-53073819D01*
X154560500Y-52926181D01*
X154589302Y-52781379D01*
X154645801Y-52644978D01*
X154727825Y-52522221D01*
X154832221Y-52417825D01*
X154954978Y-52335801D01*
X155091379Y-52279302D01*
X155215575Y-52254599D01*
X155236180Y-52250500D01*
X155383820Y-52250500D01*
X155404425Y-52254599D01*
X155404425Y-52254599D01*
G37*
G36*
X148439500Y-53749500D02*
G01*
X146940500Y-53749500D01*
X146940500Y-52250500D01*
X148439500Y-52250500D01*
X148439500Y-53749500D01*
X148439500Y-53749500D01*
G37*
G36*
X121059500Y-53749500D02*
G01*
X119560500Y-53749500D01*
X119560500Y-52250500D01*
X121059500Y-52250500D01*
X121059500Y-53749500D01*
X121059500Y-53749500D01*
G37*
G36*
X112784425Y-52254599D02*
G01*
X112908621Y-52279302D01*
X113045022Y-52335801D01*
X113167779Y-52417825D01*
X113272175Y-52522221D01*
X113354199Y-52644978D01*
X113410698Y-52781379D01*
X113439500Y-52926181D01*
X113439500Y-53073819D01*
X113410698Y-53218621D01*
X113354199Y-53355022D01*
X113272175Y-53477779D01*
X113167779Y-53582175D01*
X113045022Y-53664199D01*
X112908621Y-53720698D01*
X112784425Y-53745401D01*
X112763820Y-53749500D01*
X112616180Y-53749500D01*
X112595575Y-53745401D01*
X112471379Y-53720698D01*
X112334978Y-53664199D01*
X112212221Y-53582175D01*
X112107825Y-53477779D01*
X112025801Y-53355022D01*
X111969302Y-53218621D01*
X111940500Y-53073819D01*
X111940500Y-52926181D01*
X111969302Y-52781379D01*
X112025801Y-52644978D01*
X112107825Y-52522221D01*
X112212221Y-52417825D01*
X112334978Y-52335801D01*
X112471379Y-52279302D01*
X112595575Y-52254599D01*
X112616180Y-52250500D01*
X112763820Y-52250500D01*
X112784425Y-52254599D01*
X112784425Y-52254599D01*
G37*
G36*
X150426000Y-53526000D02*
G01*
X149024000Y-53526000D01*
X149024000Y-52474000D01*
X150426000Y-52474000D01*
X150426000Y-53526000D01*
X150426000Y-53526000D01*
G37*
G36*
X118976000Y-53526000D02*
G01*
X117574000Y-53526000D01*
X117574000Y-52474000D01*
X118976000Y-52474000D01*
X118976000Y-53526000D01*
X118976000Y-53526000D01*
G37*
G36*
X115426000Y-53526000D02*
G01*
X114024000Y-53526000D01*
X114024000Y-52474000D01*
X115426000Y-52474000D01*
X115426000Y-53526000D01*
X115426000Y-53526000D01*
G37*
G36*
X153976000Y-53526000D02*
G01*
X152574000Y-53526000D01*
X152574000Y-52474000D01*
X153976000Y-52474000D01*
X153976000Y-53526000D01*
X153976000Y-53526000D01*
G37*
G36*
X71713855Y-51452140D02*
G01*
X71777618Y-51458420D01*
X71868404Y-51485960D01*
X71900336Y-51495646D01*
X72013425Y-51556094D01*
X72112554Y-51637446D01*
X72193906Y-51736575D01*
X72254354Y-51849664D01*
X72254355Y-51849668D01*
X72291580Y-51972382D01*
X72304149Y-52100000D01*
X72291580Y-52227618D01*
X72275902Y-52279302D01*
X72254354Y-52350336D01*
X72193906Y-52463425D01*
X72112554Y-52562554D01*
X72013425Y-52643906D01*
X71900336Y-52704354D01*
X71887535Y-52708237D01*
X71777618Y-52741580D01*
X71713855Y-52747860D01*
X71681974Y-52751000D01*
X69818026Y-52751000D01*
X69786145Y-52747860D01*
X69722382Y-52741580D01*
X69612465Y-52708237D01*
X69599664Y-52704354D01*
X69486575Y-52643906D01*
X69387446Y-52562554D01*
X69306094Y-52463425D01*
X69245646Y-52350336D01*
X69224098Y-52279302D01*
X69208420Y-52227618D01*
X69195851Y-52100000D01*
X69208420Y-51972382D01*
X69245645Y-51849668D01*
X69245646Y-51849664D01*
X69306094Y-51736575D01*
X69387446Y-51637446D01*
X69486575Y-51556094D01*
X69599664Y-51495646D01*
X69631596Y-51485960D01*
X69722382Y-51458420D01*
X69786145Y-51452140D01*
X69818026Y-51449000D01*
X71681974Y-51449000D01*
X71713855Y-51452140D01*
X71713855Y-51452140D01*
G37*
M02*
